<svg class="allclouds" xmlns="http://www.w3.org/2000/svg" viewBox="0 0 700 540" enable-background="new 0 0 700 540;">
	<style type="text/css">.white{fill:#FFFFFF;}</style>
	<g class="cloud layer">
		<path d="M554 268.8c1.1-3.8 1.8-7.7 2.2-11.7 3.9-40.6-30.6-77.1-77-81.6-21.8-2.1-42.3 3.3-58.4 13.8.3-1.7.6-3.4.7-5.2 3.5-36.9-28-70.2-70.5-74.2-38.1-3.6-71.9 17.4-81.1 48.4-9.1-4.9-19.5-8.1-30.7-9.2-40-3.8-75.1 21.3-78.4 56.2-.3 3.5-.3 7 0 10.4-25.9-1.2-47.9 14-50 35-1.3 13.7 6.2 26.6 18.7 34.9-9.5 6.4-16.2 16.7-17.3 28.8-2.1 21.8 14.3 41.2 36.6 43.3 4.3.4 8.5.1 12.5-.7-1.3 21.3 14.8 40 36.6 42.1 7.4.7 14.5-.6 20.8-3.5 6.3 14.5 22.6 25.8 42.7 27.7 15.1 1.5 29.2-2.8 39.1-10.5 6.5 10.1 17.4 17.2 30.4 18.5 16.6 1.6 31.9-6.9 39.4-20.4 6.4 6.1 14.8 10.1 24.3 11 10.4 1 20.2-2 27.9-7.6 7.9 10.3 20.9 17.7 36.3 19.1 18.8 1.8 36-5.8 45.1-18.3 21.2.7 39.5-14.7 41.6-35.6 26.6-3.7 48-24.1 50.6-50.7 2.5-27.3-15.6-51.9-42.1-60z"/>
		<path class="white" d="M544.6 367c-4.1 1.4-8.5 2.4-13 2.9-1.1 3.4-2.6 6.5-4.5 9.4-4 6.2-9.7 11.2-16.5 14.4-4.6 2.2-9.8 3.6-15.1 3.9-2.9 4.5-6.8 8.5-11.5 11.6-9.3 6.3-21.6 9.6-34.7 8.4-8.3-.8-15.9-3.3-22.4-7.1-3.4-2-6.6-4.3-9.3-6.9-.3.1-.5.3-.7.4-6.9 3.7-15 5.5-23.4 4.7-7.3-.7-14-3.3-19.5-7.2-1.6-1.1-3.2-2.4-4.6-3.7-1.4 2.2-2.9 4.3-4.7 6.2-8.3 8.9-20.6 14-33.8 12.7-9.3-.9-17.5-4.8-23.8-10.6-2-1.8-3.7-3.8-5.3-5.9-1.7 1.4-3.5 2.6-5.5 3.7-9.3 5.4-21.1 8.1-33.7 6.9-15.8-1.5-29.3-8.9-37.4-19-2.1-2.7-3.9-5.6-5.3-8.6-1.3.2-2.6.4-4 .5-2.4.2-4.9.2-7.4 0-18-1.7-32.1-14.7-35.8-31.1l-.6-3.2c-3.2.6-6.5.9-9.8.8l-2.3-.1c-22.3-2.1-38.6-21.5-36.6-43.3.7-7.6 3.6-14.4 8-20.1 1.1-1.4 2.3-2.8 3.6-4.1l.5-.5-.6.3c-6.9-7.7-10.6-17.2-9.7-27.1 1.6-17.2 16.7-30.5 36.4-34.1 2.4-.4 4.9-.7 7.5-.9 0-1.2.1-2.5.2-3.8v-.6c3.3-34.8 38.4-60 78.4-56.2 7.3.7 14.3 2.3 20.7 4.7 2.1.8 4.2 1.6 6.2 2.6.6-1.7 1.3-3.3 2.1-4.9 11.8-24.5 40.9-40.4 73.1-37.3 38.9 3.7 68.1 33.6 66.5 67.3 0 .9-.1 1.8-.2 2.7l-.3 2.1c1.1-.7 2.3-1.3 3.4-1.9 14.8-7.7 32.5-11.3 51.2-9.6 46.4 4.4 80.9 40.9 77 81.5-.1 1-.3 2-.4 3.1 1.9.8 3.7 1.7 5.4 2.7 18.5 10.2 30.1 29.5 28.1 50.3-1.7 20.7-16.3 37.2-35.9 44z"/>
	</g>
	<g class="lines layer">
		<path d="M474.6 498.1l-8.4-3.2-20.3-53.6zM460.5 494.7l1.3-2.4-15.4-43.9zM450 508.7l3.6-2.7-11.4-58.1zM274.7 55.8l9.6 4 21.6 62.3zM290.8 60.2l-1.5 2.7 16.3 51zM303.4 44.5l-4.3 2.9 11.4 67.2zM532.6 119.6l2.5 17.1-70.5 83.8zM540 146.4l-5.1.1-58.9 66.6zM573.1 150.9l-7.8-3.5-86.1 73.2zM60.7 328.2l8.5-12.4 94.3-12zM71.7 306.7l3.4 2.9 76.7-7.8zM53.3 284.4l2.9 6.9 98.1 3.9z"/>
	</g>
	<g class="zoom layer">
		<g class="puffs2 layer">
			<path d="M660.1 430.7c3.7-5.5 5.6-12.8 4.8-20.7-1.6-15.5-13.1-27-25.8-25.7-3 .3-5.7 1.3-8.2 2.8-5.6-8.6-16.5-13.9-28.5-12.7-13.2 1.3-23.6 10.2-26.3 21.2-9.2 5.9-14.9 17.4-13.6 29.9 1.7 17 15.5 29.6 31 28.3-.6 1.6-.9 3.4-.7 5.1.8 8.2 10.7 14 22 12.8 7.2-.7 13.2-4.1 16.4-8.5 4.4 3.1 10 4.7 16 4 12.5-1.3 21.7-11.6 20.5-23-.4-5.4-3.3-10.2-7.6-13.5z"/>
			<path class="white" d="M640.3 459.5c-5.9.6-11.4-.9-15.7-3.8 1.2 2.4 2.9 4.5 5 6.3-3.4 2.8-8.1 4.8-13.4 5.3-11.3 1.2-21.1-4.6-22-12.8v-.6c4.8-.5 9.1-2.3 12.8-5.1-1.8.5-3.8.9-5.7 1.1-16.9 1.7-31.8-9.3-33.4-24.5-.8-8 2.3-15.6 7.8-21.3.6 5.2 2.9 9.9 6.4 13.6-.9-2.2-1.5-4.6-1.7-7.1-.4-4 .1-7.8 1.3-11.3 4.1-2.5 8.8-4.2 14-4.7 2.4-.2 4.8-.2 7.1.1-4.6-2.4-9.7-3.6-15.1-3.1-.7.1-1.4.2-2.2.3 4.3-5.8 10.8-9.8 18.5-10.6 14.6-1.5 27.6 9.2 29.1 23.9.1 1.2.1 2.4.1 3.5 1.4-3.5 2-7.2 1.6-11.1-.2-2.4-.9-4.7-1.8-6.8.1 0 .2 0 .3-.1 13.8-1.4 26.2 9 27.6 23.3 1.1 11.2-4.7 21.3-13.9 25.9 5.1-1.1 9.4-4.2 12.6-8.6.6 1.6 1.1 3.3 1.3 5.1 1.1 11.6-8.1 21.9-20.6 23.1z"/>
			<path d="M209.3 85.2c7.5-5.9 10.7-14.5 7.2-20.8-4-7.3-15.6-8.8-25.8-3.1-2.7 1.5-5 3.3-7 5.4-1.6.2-3.2.7-4.7 1.5-6.3 3.5-8.6 11.5-5.1 17.9.8 1.5 1.9 2.8 3.1 3.8-.7 3.6-.2 7.5 1.6 10.9 4.4 8 14.7 10.8 23 6.2 8.1-4.4 11.3-13.9 7.7-21.8z"/>
			<path class="white" d="M180.9 98c-3.9-7.1-.9-16.2 6.7-20.3 1.7-.9 3.4-1.5 5.2-1.8-2.3.2-4.7.9-6.9 2.1-4.5 2.5-7.5 6.6-8.6 11.1l-.8-1.2c-3.5-6.4-1.2-14.4 5.1-17.9 4.1-2.3 8.9-2 12.8.2-2.6-2.5-6.2-3.8-9.7-3.6 2.7-1.4 5.6-2.6 8.7-3.4 11.6-2.8 20.7 1.3 20.2 9.1-.5 7.5-9.4 15.7-20.2 19 3.9-.1 8-1.2 12-3.4 1.4-.8 2.7-1.7 4-2.6 2.2 6.7-.9 14.3-7.6 18-7.7 4.2-17 1.8-20.9-5.3z"/>
			<path d="M314.3 480.9c-2.5-9.2-9.2-15.5-16.3-14.8-8.3.8-14.1 11-13 22.6.3 3.1 1.1 5.9 2.2 8.5-.4 1.5-.6 3.2-.4 4.9.7 7.2 7.2 12.4 14.4 11.7 1.7-.2 3.3-.7 4.7-1.4 3.1 2.1 6.8 3.1 10.7 2.7 9.1-.9 15.6-9.3 14.7-18.7-1-9.1-8.4-15.7-17-15.5z"/>
			<path class="white" d="M315 512.1c-8 .8-15.2-5.5-16.1-14.1-.2-1.9 0-3.7.4-5.4-.7 2.2-1 4.7-.7 7.1.5 5.1 3.2 9.5 6.9 12.2-.5.1-.9.2-1.4.2-7.2.7-13.7-4.5-14.4-11.7-.5-4.7 1.6-9 5.1-11.7-3.3 1.4-5.9 4.2-7.1 7.5-.3-3-.2-6.2.3-9.3 1.9-11.8 9.2-18.5 16.3-15 6.7 3.4 10.8 14.8 9.6 26 1.4-3.6 2-7.9 1.5-12.4-.2-1.6-.5-3.2-.9-4.7 7 .5 12.9 6.4 13.6 14 .7 8.8-5.1 16.4-13.1 17.3z"/>
		</g>
	</g>
	<g class="puffs1 layer">
		<path class="white" d="M406.6 184l40.7-51.1s25.2 3.6 42.8-13.7c17.6-17.3-6.4-35.9-6.4-35.9s8.3-34-35.1-36.1c0 0-2.8-24.2-20.3-26.2s-24.5 27-24.5 27-27.3-.3-34.1 24.2c-6.8 24.5 27.9 53.4 38.1 58.9l-1.2 52.9z"/>
		<path d="M368.2 81.9c-1.8-17.5 11.9-33.2 30.5-35.1l3-.2c4.5-11.3 13-26.7 26.1-28.1 13.2-1.3 20.5 14.3 24.2 26.1 18.8.1 34.5 12.4 36.2 29.1.4 3.8 0 7.6-1.1 11.1 5.4 2.8 9.6 7.3 11.6 13.2 4.6 13.3-4.1 28.4-19.5 33.6-6.8 2.3-13.7 2.3-19.7.5 4.4.6 9 .3 13.5-1.3 15.3-5.2 23.5-21.8 18.3-37.1-1-3.1-2.6-5.8-4.5-8.2-1.3 4.1-3.5 7.9-6.3 11.2 1.3-4.4 1.8-9.2 1.3-14-2.1-20.6-20.6-35.6-41.3-33.5-6.1.6-11.7 2.7-16.5 5.8 6-5.4 14.1-9.1 23.3-10.1 1.4-.1 2.7-.2 4.1-.2-5.1-9.3-12.9-18.5-23.6-17.4-10.3 1-19 10.3-25.2 19.4 4.3 0 8.5.8 12.3 2.3-2.6-.4-5.3-.6-8.1-.4-2.1.1-4.2.5-6.2 1l-.2.3.1-.3c-16.6 4.1-28.5 19.5-27.3 37 .3 4.9 1.6 9.5 3.7 13.6-4.8-4.8-8-11.1-8.7-18.3zM414.7 179.3l43.1-64.7-11 .1zM410.4 130.4l-2.8 46.2 7.9-47zM406.3 116.7l-12.1-17.4 8.5 77.5z"/>
		<path class="white" d="M172.2 230.5l-34.2-55.6s12-22.5 1.7-44.9-36-6.2-36-6.2-29.1-19.3-45.9 20.7c0 0-23.7-5.6-31.6 10.1-7.8 15.7 17 32.2 17 32.2s-9.6 25.5 11.1 40.3c20.7 14.8 59.7-8 68.4-15.7l49.5 19.1z"/>
		<path d="M63.1 231.9c-17-4.3-27.1-22.4-22.6-40.6.2-1 .5-1.9.9-2.9-9.1-8.1-20.7-21.3-17.5-34.1 3.2-12.8 20.4-14.4 32.7-13.8 6.5-17.6 23.4-28.2 39.7-24.1 3.7.9 7.1 2.6 10.1 4.8 4.5-4.1 10.2-6.6 16.3-6.5 14.1.3 25.3 13.6 25 29.8-.1 7.2-2.5 13.7-6.3 18.7 2.1-3.9 3.3-8.4 3.4-13.1.3-16.2-12.5-29.5-28.6-29.8-3.2-.1-6.3.5-9.3 1.4 3.4 2.6 6.2 5.9 8.4 9.7-3.7-2.7-8-4.8-12.8-6-20.1-5-40.5 7.2-45.6 27.4-1.5 5.9-1.5 11.9-.2 17.5-3-7.5-3.8-16.4-1.5-25.3.3-1.3.7-2.6 1.2-3.9-10.5 1.6-21.8 5.9-24.4 16.3-2.5 10 3.2 21.3 9.7 30.3 1.5-4.1 3.7-7.7 6.3-10.8-1.3 2.3-2.3 4.8-3.1 7.5-.6 2-1 4.1-1.2 6.1.1.1.2.2.2.3l-.3-.2c-1.8 17 8.6 33.4 25.5 38.3 4.7 1.4 9.5 1.7 14.1 1.1-6.1 2.8-13.1 3.7-20.1 1.9zM170.6 221.3l-46.2-62.6-3.7 10.4zM123.2 208.7l42.4 18.4-41.5-23.5zM108.8 207.9l-20.4 5.5 75.7 18.3z"/>
		<path class="white" d="M246.6 384l-54.3 15s-15.7-15.3-36.8-12.1c-21 3.2-13.7 28.3-13.7 28.3s-23 19.5 6.2 43c0 0-10.3 18.3.9 28.6 11.2 10.2 30.8-6.4 30.8-6.4s18.9 14 36.1.4c17.2-13.6 7.6-51.4 3.3-60.4l27.5-36.4z"/>
		<path d="M221.7 474.7c-7.6 13.1-25.1 17.1-39 9-.7-.4-1.5-.9-2.2-1.4-8.9 5.6-22.6 12.1-32.4 6.4-9.9-5.7-7.1-20.3-3.7-30.4-13-9.6-17.8-26.1-10.5-38.6 1.7-2.9 3.9-5.3 6.4-7.2-2.3-4.7-3-10-1.5-15.1 3.6-11.6 17.3-17.7 30.6-13.6 5.9 1.8 10.7 5.3 14 9.7-2.8-2.7-6.2-4.7-10.1-5.9-13.3-4.1-27.5 3.3-31.5 16.6-.8 2.7-1.1 5.4-1.1 8 3-2.2 6.4-3.7 10.1-4.6-3.1 2.5-5.9 5.5-8 9.2-9 15.5-3.7 35.3 11.9 44.3 4.6 2.7 9.5 4 14.4 4.3-6.9.7-14.5-.8-21.3-4.8-1-.6-2-1.2-2.9-1.9-1.1 9.1-.3 19.5 7.6 24.1 7.7 4.5 18.4 2.5 27.4-.8-3-2.2-5.5-4.9-7.5-7.8 1.6 1.6 3.4 3.1 5.4 4.4 1.6 1 3.2 1.8 4.8 2.4l.3-.1c-.1.1-.2.1-.2.2 13.7 5.6 29.7.8 37.8-12 2.2-3.6 3.7-7.5 4.3-11.4 1 5.6.1 11.6-3.1 17zM238.6 383.1l-62.9 23.3 7.7 5.6zM216.8 419.4l25.4-30.8-29.4 28.8zM212.8 431.1l-.4 18.2 33.3-58.3z"/>
		<path class="white" d="M495.5 247.2l87.7-1.9s7.5 13.4 22.2 15.4 14.8-16.3 14.8-16.3 19.3-8.5 4.4-30c0 0 10.6-10.2 5.1-19.3-5.4-9.1-21.9-1.8-21.9-1.8s-9.9-13.2-24.1-7.5c-14.2 5.7-15.3 32.9-14.2 39.8l-74 21.6z"/>
		<path d="M578.6 188.8c7.7-7.3 20.2-6.5 28 1.7l1.5 1.8c6.6-2 17-3.8 22.4 1.9 5.2 5.6.5 14.4-3.6 20.1 6.6 8.9 6.5 20.8-.8 27.6-1.6 1.5-3.4 2.6-5.4 3.4.6 3.9 0 7.9-2 11.2-4.7 7.8-15.1 9.2-23.2 3.2-3.6-2.7-6.2-6.3-7.5-10.3 1.3 2.6 3.2 4.9 5.6 6.7 8.2 6 19.1 3.7 24.4-5.2 1-1.7 1.7-3.5 2.2-5.4-2.5.9-5.1 1.3-7.8 1.2 2.6-1 5-2.5 7.1-4.5 9-8.5 9.4-22.8.9-31.9-2.5-2.7-5.5-4.6-8.8-5.7 4.8.9 9.5 3.4 13.3 7.4l1.8 2.1c2.5-5.6 4.1-12.5-.2-17-4.2-4.5-11.8-5.1-18.3-4.6 1.5 2 2.6 4.2 3.2 6.5-.8-1.4-1.7-2.7-2.8-4-7.9-9-21.6-10-30.5-2.1-2.2 1.9-3.9 4.3-5.1 6.8.6-4.1 2.4-7.9 5.6-10.9zM582.9 205.7l-5.6 12.5-74 25.8zM575.7 222.4l.2 4.6-66.6 18.4zM593 235.6l-82.6 13.3 86.4-6z"/>
		<path class="white" d="M449.8 388.8l39.2 78.5s-8.9 12.5-4.5 26.7 21 6.5 21 6.5 15.9 13.8 29-8.8c0 0 13.8 5.2 19.7-3.6 5.9-8.8-7.7-20.6-7.7-20.6s7.7-14.5-3.6-25c-11.3-10.4-36.3.2-42.1 4.2l-51-57.9z"/>
		<path d="M538.1 439c9.9 3.9 14.5 15.5 10.4 26-.3.7-.6 1.4-1 2.1 4.6 5.1 10.7 13.8 7.9 21-2.8 7.1-12.8 6.6-19.7 5.4-5.2 9.8-16 14.8-25.3 11.1-2-.8-3.8-2-5.4-3.4-3.3 2.2-7.1 3.4-11 3-9-.9-14.8-9.7-12.8-19.6.9-4.4 3.1-8.3 6.1-11.2-1.8 2.3-3 5-3.6 7.9-1.9 10 4.8 18.9 15.1 19.9 2 .2 3.9.1 5.8-.3-1.9-1.8-3.4-4.1-4.4-6.6 2 1.9 4.4 3.5 7.1 4.5 11.6 4.5 24.7-1.2 29.2-12.8 1.3-3.4 1.8-7 1.5-10.4 1.2 4.7 1 10-1 15.2-.3.9-.7 1.7-1.2 2.5 6.1-.1 13-1.6 15.3-7.4 2.2-5.7-.5-12.8-3.7-18.5-1.2 2.2-2.7 4.1-4.5 5.7.9-1.3 1.8-2.7 2.4-4.2 4.8-11-.2-23.8-11.1-28.5-2.7-1.2-5.5-1.7-8.3-1.8 3.9-1.2 8.2-1.2 12.2.4zM524.6 450.1l-13.6.3-55-55.9zM506.5 450.8l-4.1 2.1-45.1-52.4zM501.9 472.1l-47.3-69.1 42.4 75.6z"/>
	</g>
	
</svg>