<svg width="100" height="100" xmlns="http://www.w3.org/2000/svg" viewBox="0 0 100 100"><g><path fill="#FFDE11" d="M50.3 20.3v61.1h.1c7.9 0 14.8-3.2 19.9-8.3 5.1-5.1 8.3-12.2 8.3-19.9v-32.9h-28.3z"/><path fill="#48622E" d="M50.3 20.3h-28.1v32.9c0 7.9 3.2 14.8 8.3 19.9 5 5 12.1 8.2 19.8 8.3v-61.1z"/><path fill="#010101" d="M16.7 14.9v38.3c0 18.6 15 33.6 33.6 33.6s33.6-15 33.6-33.6v-38.3h-67.2zm64.2 38.4c0 17-13.8 30.5-30.6 30.6-17 0-30.5-13.8-30.5-30.6v-35.3h61.2v35.3h-.1z"/><path fill="#010101" d="M47.4 99c1.3-1 1.8-2.3 1.8-3.9-1.4-.1-2.9.4-4.1 1.2-1.3.9-2 2.1-2.2 3.6 1.7.3 3.3.1 4.5-.9zm-1.8-6.7c.9 1.3 2.2 1.8 3.7 1.8.1-1.4-.4-2.8-1.2-3.9-.9-1.1-2-1.8-3.3-1.9-.2 1.4 0 2.8.8 4zm-6.1 5.3c1.5-.7 2.2-1.9 2.5-3.4-1.4-.4-2.9-.2-4.3.4-1.4.6-2.5 1.7-2.9 3.2 1.6.7 3.3.7 4.7-.2zm-.6-6.8c.7 1.4 1.9 2.1 3.4 2.5.3-1.3.1-2.8-.5-4.1-.7-1.3-1.6-2-2.9-2.5-.6 1.3-.6 2.8 0 4.1zm-6.9 4.2c1.6-.4 2.6-1.6 3.1-2.9-1.3-.6-2.8-.8-4.3-.3-1.5.4-2.7 1.3-3.4 2.6 1.3.9 3.1 1 4.6.6zm.5-6.9c.4 1.4 1.5 2.5 2.9 3 .6-1.3.6-2.7.2-4.1-.4-1.5-1.4-2.2-2.3-3-.9 1.3-1.1 2.7-.8 4.1zm-7.5 2.9c1.6-.2 2.9-1.2 3.6-2.3-1.2-.7-2.6-1.3-4.2-1.1-1.6.2-3 .9-3.8 1.9 1.2 1.1 2.8 1.7 4.4 1.5zm1.7-6.6c.2 1.4 1 2.9 2.2 3.5.8-1.2 1.1-2.6.9-4-.2-1.5-.9-2.6-1.8-3.4-.9 1-1.5 2.4-1.3 3.9zm-7.9 1.5c1.6.1 3-.7 3.9-1.7-1.1-.9-2.3-1.6-3.9-1.7-1.6-.1-3.1.4-4.1 1.3 1.1 1.2 2.5 2 4.1 2.1zm2.9-6.2c-.1 1.5.5 3 1.6 3.8 1-1 1.5-2.3 1.6-3.8.1-1.5-.4-2.8-1.3-3.6-1 .8-1.8 2-1.9 3.6zm-8.2.1c1.6.4 3.1-.1 4.2-1-.8-1.2-2-1.9-3.5-2.3-1.5-.5-3-.3-4.2.5.8 1.3 2 2.5 3.5 2.8zm4-5.8c-.4 1.5 0 3 1 4.1 1.1-.8 1.8-2 2.1-3.5.2-1.4.1-2.8-.6-3.8-1.1.8-2.1 1.9-2.5 3.2zm-8-1.2c1.5.6 3 .4 4.3-.3-.6-1.3-1.6-2.2-3.1-3s-3-.7-4.3-.2c.5 1.6 1.6 2.9 3.1 3.5zm4.9-4.9c-.7 1.4-.4 2.9.2 4.2 1.2-.6 2.2-1.6 2.8-3s.5-2.7.1-3.8c-1.2.5-2.4 1.4-3.1 2.6zm-7.6-2.6c1.4.9 2.9 1 4.2.5-.3-1.4-1.2-2.6-2.5-3.5-1.2-.9-2.7-1.3-4.1-.9 0 1.6 1.2 2.9 2.4 3.9zm5.6-4c-.8 1.2-.9 2.8-.5 4.2 1.3-.4 2.5-1.3 3.3-2.5.8-1.3.9-2.5.7-3.8-1.4.2-2.6.9-3.5 2.1zm-7-3.9c1.2 1.1 2.7 1.5 4.1 1.2-.2-1.4-.7-2.8-1.7-3.9-1.1-1.1-2.6-1.6-4-1.6-.1 1.5.4 3.3 1.6 4.3zm6.2-2.9c-1 1.1-1.6 2.6-1.2 4 1.4-.1 2.6-.8 3.6-1.8s1.5-2.2 1.4-3.6c-1.5-.1-2.8.4-3.8 1.4zm-6.4-4.8c1.1 1.1 2.5 1.6 3.9 1.6 0-1.4-.5-2.8-1.5-3.9-1.1-1.1-2.5-1.6-4-1.6 0 1.5.4 2.8 1.6 3.9zm6.4-2.4c-1.1 1.1-1.6 2.6-1.5 4 1.4 0 2.8-.5 3.8-1.6 1.1-1.1 1.6-2.6 1.5-4-1.5-.1-2.8.6-3.8 1.6zm-6.4-4.9c1.1 1.1 2.4 1.6 3.8 1.6 0-1.4-.5-2.8-1.5-3.9-1.1-1.1-2.5-1.6-4-1.6.1 1.4.5 3 1.7 3.9zm6.4-2.4c-1.1 1.1-1.6 2.6-1.5 4 1.4 0 2.8-.5 3.8-1.6 1.1-1.1 1.6-2.6 1.5-4-1.5.1-2.8.5-3.8 1.6zm-6.4-4.8c1.1 1.1 2.5 1.6 3.9 1.6 0-1.4-.5-2.8-1.5-3.9s-2.5-1.6-3.9-1.6c-.1 1.4.3 2.8 1.5 3.9zm6.4-2.5c-1.1 1.1-1.6 2.6-1.5 4 1.4 0 2.8-.5 3.8-1.6 1.1-1.1 1.6-2.6 1.5-4-1.5 0-2.8.6-3.8 1.6zm-6.4-4.8c1.1 1.1 2.4 1.6 3.8 1.6 0-1.4-.5-2.8-1.5-3.9-1.1-1.1-2.5-1.6-4-1.6.1 1.4.5 2.8 1.7 3.9zm6.4-2.4c-1.1 1.1-1.6 2.6-1.5 4 1.4 0 2.8-.5 3.8-1.6 1.1-1.1 1.6-2.6 1.5-4-1.5 0-2.8.5-3.8 1.6zm-6.4-4.9c1.1 1.1 2.5 1.6 3.9 1.6 0-1.4-.5-2.8-1.5-3.9-1.1-1.1-2.5-1.6-4-1.6 0 1.5.4 2.8 1.6 3.9zm6.4-2.4c-1.1 1.1-1.6 2.6-1.5 4 1.4 0 2.8-.5 3.8-1.6 1.1-1.1 1.6-2.6 1.5-4-1.5-.1-2.8.4-3.8 1.6zm40.9 72.1c-.9 1.1-1.4 2.6-1.2 4 1.4 0 2.8-.6 3.6-1.7.9-1.2 1.1-2.7.8-4.1-1.1-.1-2.2.8-3.2 1.8zm3.1 6.1c-1.3-.8-2.8-1.3-4.3-1.2 0 1.4.6 2.8 1.8 3.7 1.3 1.1 3.1 1.2 4.7.9 0-1.2-.9-2.6-2.2-3.4zm3.4-7.1c-.7 1.3-.9 2.8-.5 4.2 1.4-.3 2.6-1.1 3.3-2.3.7-1.4.6-2.9 0-4.2-1.1.1-2.1.9-2.8 2.3zm4.1 5.5c-1.4-.7-3-.8-4.4-.4.3 1.4 1.1 2.6 2.5 3.3 1.5.8 3.3.8 4.8.1-.6-1.4-1.6-2.4-2.9-3zm2-7.8c-.4 1.4-.4 3 .2 4.2 1.3-.5 2.3-1.6 2.8-3 .4-1.4.1-3-.7-4.2-1 .8-1.9 1.7-2.3 3zm5 4.8c-1.6-.5-3.1-.2-4.4.4.5 1.3 1.5 2.3 3 2.8 1.5.4 3.4.3 4.7-.7-.6-1.4-1.9-2.1-3.3-2.5zm.6-8c-.2 1.5.1 2.9 1 4.1 1.3-.6 1.9-1.9 2.1-3.4.2-1.5-.4-2.9-1.4-3.9-.8.7-1.5 1.8-1.7 3.2zm5.9 3.8c-1.6-.2-3 .4-4.3 1.2.7 1.2 1.8 2 3.5 2.2 1.6.2 3.3-.4 4.5-1.5-.9-1.1-2.2-1.8-3.7-1.9zm-.8-7.8c0 1.4.6 2.8 1.6 3.8 1.1-.9 1.6-2.2 1.6-3.8-.1-1.5-.9-2.8-1.9-3.6-1 .8-1.4 2-1.3 3.6zm6.3 2.6c-1.6.1-2.9.9-4 1.8.9 1 2.1 1.6 3.9 1.6 1.6-.1 3.1-1 4.2-2.2-1.2-.9-2.6-1.3-4.1-1.2zm-2.1-7.7c.3 1.4 1.1 2.7 2.2 3.5.9-1.1 1.3-2.5.9-4s-1.4-2.6-2.7-3.2c-.5 1-.6 2.4-.4 3.7zm6.7 1.6c-1.5.4-2.8 1.3-3.6 2.5 1.1.9 2.5 1.3 4.1.9 1.6-.3 2.9-1.6 3.7-3-1.3-.6-2.8-.8-4.2-.4zm-3.4-7.2c.6 1.4 1.6 2.5 2.9 3.1.6-1.3.9-2.7.2-4.1-.6-1.4-1.7-2.2-3.2-2.7-.4 1.2-.4 2.4.1 3.7zm6.8.4c-1.4.7-2.6 1.7-3.1 3.1 1.2.7 2.7.8 4.2.2 1.6-.6 2.7-1.9 3.1-3.6-1.3-.5-2.8-.4-4.2.3zm-4.6-6.5c.8 1.2 2 2.1 3.4 2.5.4-1.3.2-2.9-.5-4.1-.8-1.3-2.1-1.9-3.6-2-.2 1.2-.1 2.4.7 3.6zm6.9-.8c-1.4.9-2.1 2.1-2.5 3.6 1.3.5 2.8.4 4.1-.5 1.3-.9 2.2-2.3 2.5-4.1-1.5-.2-2.9.1-4.1 1zm-5.7-5.5c1 1.1 2.2 1.7 3.8 1.8.3-1.4-.3-2.9-1.2-3.9-1-1.1-2.3-1.5-3.9-1.5-.2 1.3.3 2.5 1.3 3.6zm6.5-2.2c-1.2 1.1-1.6 2.6-1.7 4 1.3.2 2.9-.1 4-1.2 1.1-1.1 1.7-2.8 1.6-4.4-1.3.1-2.8.6-3.9 1.6zm-6.3-4.8c1.1 1.1 2.5 1.6 3.9 1.6 0-1.4-.5-2.8-1.5-3.9-1.1-1.1-2.5-1.6-3.9-1.6-.1 1.5.4 2.8 1.5 3.9zm6.4-2.4c-1.1 1.1-1.6 2.6-1.5 4 1.4 0 2.8-.5 3.8-1.6 1.1-1.1 1.6-2.6 1.5-4-1.3-.1-2.8.6-3.8 1.6zm-6.4-4.9c1.1 1.1 2.5 1.6 3.9 1.6 0-1.4-.5-2.8-1.5-3.9-1.1-1.1-2.5-1.6-3.9-1.6-.1 1.4.4 3 1.5 3.9zm6.4-2.4c-1.1 1.1-1.6 2.6-1.5 4 1.4 0 2.8-.5 3.8-1.6 1.1-1.1 1.6-2.6 1.5-4-1.3.1-2.8.5-3.8 1.6zm-6.4-4.8c1.1 1.1 2.5 1.6 3.9 1.6 0-1.4-.5-2.8-1.5-3.9s-2.5-1.6-3.8-1.6c-.2 1.4.3 2.8 1.4 3.9zm6.4-2.5c-1.1 1.1-1.6 2.6-1.5 4 1.4 0 2.8-.5 3.8-1.6 1.1-1.1 1.6-2.6 1.5-4-1.3 0-2.8.6-3.8 1.6zm-6.4-4.8c1.1 1.1 2.5 1.6 3.9 1.6 0-1.4-.5-2.8-1.5-3.9-1.1-1.1-2.5-1.6-3.9-1.6-.1 1.4.4 2.8 1.5 3.9zm6.4-2.4c-1.1 1.1-1.6 2.6-1.5 4 1.4 0 2.8-.5 3.8-1.6 1.1-1.1 1.6-2.6 1.5-4-1.3 0-2.8.5-3.8 1.6zm-6.4-4.9c1.1 1.1 2.5 1.6 3.9 1.6 0-1.4-.5-2.8-1.5-3.9-1.1-1.1-2.5-1.6-3.9-1.6-.1 1.5.4 2.8 1.5 3.9zm6.4-2.4c-1.1 1.1-1.6 2.6-1.5 4 1.4 0 2.8-.5 3.8-1.6 1.1-1.1 1.6-2.6 1.5-4-1.3-.1-2.8.4-3.8 1.6z"/><path fill="#010101" d="M10.5 1.5h3.3l-1.2 2.7h-3.3l-3.2 7.7h-3.2l3.3-7.7h-3.3l1.1-2.7h3.3l.7-1.5h3.3c0 .1-.8 1.5-.8 1.5zm2.7 10.3c-1.7 0-2.3-.9-1.6-2.7l3.3-7.7h10.3l-1.2 2.7h-7l-.5 1.1h7.2l-1.3 2.8h-7l-.2.6c-.2.4 0 .5.3.5h6.5l-1.2 2.7h-7.6zm22.8-10.3l-4.9 11.6h-3.3l1.9-4.6h-3.3l-1.3 3.4h-3.3l3.2-7.7c.8-1.7 2-2.7 3.9-2.7h7.1zm-8.4 4.4h3.3l.7-1.7h-2.1c-.7 0-1.3.4-1.6 1.1l-.3.6zm11.6 5.9h-2.7l3.2-7.6h-1.1l-3.8 8.9h-2.7l4.9-11.6h5.4c3.3 0 4.2 1.6 2.8 4.8l-2.2 5.4h-2.7l2.2-5.4c.6-1.4.6-2.1-.2-2.1.1 0-3.1 7.6-3.1 7.6zm22.4-10.3l-1.2 2.8h-6c-.7 0-1.2.4-1.5 1.1l-.8 1.6c-.6 1.5-.2 2.1 1.3 2.1h4.8l-1.2 2.7h-4.8c-3.7 0-4.8-1.6-3.4-4.8l1.2-2.7c.8-1.7 2-2.7 3.9-2.7l7.7-.1zm4.1 10.4h-3.6c-2.5 0-3.4-.9-2.7-2.6l2.1-5c.8-1.7 2.3-2.7 4.9-2.7h3.6c2.3 0 3.2.9 2.3 2.7l-2 4.9c-.4.9-.9 1.5-1.6 1.9-.8.5-1.8.7-3 .8zm2.6-7.6h-2.3c-.7.1-1.2.4-1.5 1l-1.3 3c-.3.6 0 1 .7 1h2.1c.7-.1 1.3-.5 1.6-1.1l1.2-2.8c.3-.7.1-1.1-.5-1.1zm12.3 7.5h-7.6c-1.7 0-2.3-.9-1.6-2.7l3.9-9.1h3.4l-3.5 8c-.3.7-.1 1.1.6 1.1h5.9l-1.1 2.7zm3.8 0c-1.7 0-2.3-.9-1.6-2.7l3.3-7.7h10.3l-1.2 2.7h-7l-.5 1.1h7.2l-1.4 2.8h-7l-.2.6c-.2.4 0 .5.3.5h6.5l-1.2 2.7h-7.5z"/><g><path fill="#fff" d="M68.4 57.5c0 9.7-8 17.6-17.6 17.6s-17.6-8-17.6-17.6 8-17.6 17.6-17.6 17.6 7.9 17.6 17.6z"/><path fill="#010101" d="M34 53l-.3.4c-.3 1.3-.5 2.7-.5 4.2 0 2.1.4 4.3 1.1 6.1-.1-1.7.2-3.5.9-4.8-1.1-1.4-1.2-5.9-1.2-5.9zm30.7 9.7c-1.5 1.8-5.4 4.1-5.4 4.1s-.3 4-1.3 5.5c.8 0 1.9-.2 3.2-.5 2.2-1.6 4.2-4 5.4-6.5-.8-1.2-1.6-2.2-1.9-2.6zm-25.4 8.2c2.9 2.5 6.6 4.1 10.8 4.2.2-.2.4-.4.4-.7-2.9-.8-4.1-1.9-6-3.1-2.3.5-4.5-.2-5.2-.4zm25.1-16.4s1.9-3.6 1.6-4.5c-.4-.9-4.4-5.6-4.4-5.6l-4.5.5 1.6 6.2c.1.2 5.7 3.4 5.7 3.4zm-19.2-1.4l-4.5 6.1 4.7 6.3 7.6-2.5-.7-7.8-7.1-2.1zm-1.5-6.4c1.2-1.6 3.9-3.5 5.8-4-.6-.9-1.4-2.1-1.6-2.7-2.8.5-5.2 1.6-7.5 3.2l-2 3.3c1.6-.3 3.6-.4 5.3.2z"/></g><path fill="#fff" d="M50.2 24.7l1.5 3 3.2.4-2.5 2.2.6 3.3-2.8-1.6-2.9 1.6.5-3.3-2.2-2.2 3.2-.4 1.4-3zm-10 4.1l1 2 2.2.3-1.6 1.5.4 2.2-1.9-1.1-2 1.1.4-2.2-1.7-1.6 2.2-.3 1-1.9zm19.9 0l1 2 2.2.3-1.6 1.6.4 2.2-1.9-1.1-1.9 1.2.3-2.2-1.6-1.6 2.2-.3.9-2.1zm7.6 4.9l.7 1.4 1.5.2-1.1 1.1.3 1.5-1.4-.7-1.3.6.3-1.5-1.1-1.1 1.5-.2.6-1.3zm-35.5 0l.6 1.4 1.6.2-1.1 1.1.2 1.5-1.3-.7-1.4.8.3-1.5-1.2-1.1 1.6-.2.7-1.5z"/></g></svg>