<?xml version="1.0" encoding="utf-8"?>
<!-- Generator: Adobe Illustrator 19.1.0, SVG Export Plug-In . SVG Version: 6.00 Build 0)  -->
<!DOCTYPE svg PUBLIC "-//W3C//DTD SVG 1.1//EN" "http://www.w3.org/Graphics/SVG/1.1/DTD/svg11.dtd">
<svg version="1.1" id="Layer_1" xmlns="http://www.w3.org/2000/svg" xmlns:xlink="http://www.w3.org/1999/xlink" x="0px" y="0px"
	 viewBox="0 0 192 30" style="enable-background:new 0 0 192 30;" xml:space="preserve">
<style type="text/css">
	.st0{fill:#FFDE08;}
	.st1{fill:#4A632E;}
	.st2{fill:#020202;}
	.st3{fill:#FFFFFF;}
</style>
<g>
	<path class="st0" d="M16.1,2.3v20.9h0c2.7,0,5.1-1.1,6.8-2.8c1.7-1.7,2.8-4.2,2.8-6.8V2.3L16.1,2.3L16.1,2.3z"/>
	<path class="st1" d="M16.1,2.3H6.5v11.3c0,2.7,1.1,5.1,2.8,6.8c1.7,1.7,4.1,2.8,6.8,2.8C16.1,23.2,16.1,2.3,16.1,2.3z"/>
	<path class="st2" d="M4.6,0.4v13.1C4.6,19.9,9.7,25,16.1,25s11.5-5.1,11.5-11.5V0.4C27.6,0.4,4.6,0.4,4.6,0.4z M26.6,13.6
		c0,5.8-4.7,10.4-10.5,10.5c-5.8,0-10.4-4.7-10.4-10.5V1.5h20.9L26.6,13.6C26.6,13.6,26.6,13.6,26.6,13.6z"/>
	<path class="st2" d="M15.1,29.2c0.4-0.3,0.6-0.8,0.6-1.3c-0.5,0-1,0.1-1.4,0.4c-0.4,0.3-0.7,0.7-0.8,1.2
		C14.2,29.6,14.7,29.5,15.1,29.2z M14.5,26.9c0.3,0.4,0.8,0.6,1.3,0.6c0-0.5-0.1-1-0.4-1.3c-0.3-0.4-0.7-0.6-1.1-0.6
		C14.2,26,14.2,26.5,14.5,26.9z M12.4,28.7c0.5-0.2,0.8-0.6,0.9-1.2c-0.5-0.1-1-0.1-1.5,0.1c-0.5,0.2-0.9,0.6-1,1.1
		C11.4,29,11.9,29,12.4,28.7z M12.2,26.4c0.2,0.5,0.6,0.7,1.2,0.9c0.1-0.4,0-1-0.2-1.4c-0.2-0.4-0.5-0.7-1-0.9
		C12,25.4,12,26,12.2,26.4z M9.8,27.8c0.5-0.1,0.9-0.5,1.1-1c-0.4-0.2-1-0.3-1.5-0.1c-0.5,0.1-0.9,0.4-1.2,0.9
		C8.7,27.9,9.3,28,9.8,27.8z M10,25.5c0.1,0.5,0.5,0.9,1,1c0.2-0.4,0.2-0.9,0.1-1.4c-0.1-0.5-0.5-0.8-0.8-1C10,24.5,9.9,25,10,25.5z
		 M7.5,26.5c0.5-0.1,1-0.4,1.2-0.8c-0.4-0.2-0.9-0.4-1.4-0.4s-1,0.3-1.3,0.6C6.4,26.3,6.9,26.5,7.5,26.5z M8,24.2
		c0.1,0.5,0.3,1,0.8,1.2C9.1,25,9.2,24.5,9.1,24c-0.1-0.5-0.3-0.9-0.6-1.2C8.2,23.2,8,23.7,8,24.2z M5.3,24.7c0.5,0,1-0.2,1.3-0.6
		c-0.4-0.3-0.8-0.5-1.3-0.6S4.3,23.7,3.9,24C4.3,24.4,4.8,24.7,5.3,24.7z M6.3,22.6c0,0.5,0.2,1,0.5,1.3c0.3-0.3,0.5-0.8,0.5-1.3
		s-0.1-1-0.4-1.2C6.6,21.6,6.4,22.1,6.3,22.6z M3.5,22.6c0.5,0.1,1.1,0,1.4-0.3c-0.3-0.4-0.7-0.6-1.2-0.8c-0.5-0.2-1-0.1-1.4,0.2
		C2.6,22.1,3,22.5,3.5,22.6z M4.9,20.7c-0.1,0.5,0,1,0.3,1.4c0.4-0.3,0.6-0.7,0.7-1.2c0.1-0.5,0-1-0.2-1.3C5.4,19.8,5,20.2,4.9,20.7
		z M2.2,20.2c0.5,0.2,1,0.1,1.5-0.1c-0.2-0.4-0.5-0.8-1.1-1s-1-0.2-1.5-0.1C1.3,19.6,1.6,20,2.2,20.2z M3.8,18.6
		c-0.2,0.5-0.1,1,0.1,1.4c0.4-0.2,0.8-0.5,1-1s0.2-0.9,0-1.3C4.5,17.9,4.1,18.2,3.8,18.6z M1.2,17.7c0.5,0.3,1,0.3,1.4,0.2
		c-0.1-0.5-0.4-0.9-0.9-1.2c-0.4-0.3-0.9-0.4-1.4-0.3C0.4,16.9,0.8,17.3,1.2,17.7z M3.1,16.3c-0.3,0.4-0.3,1-0.2,1.4
		c0.4-0.1,0.9-0.4,1.1-0.9c0.3-0.4,0.3-0.9,0.2-1.3C3.9,15.7,3.5,15.9,3.1,16.3z M0.7,15c0.4,0.4,0.9,0.5,1.4,0.4
		c-0.1-0.5-0.2-1-0.6-1.3c-0.4-0.4-0.9-0.5-1.4-0.5C0.2,14,0.3,14.6,0.7,15z M2.9,14c-0.3,0.4-0.5,0.9-0.4,1.4
		c0.5,0,0.9-0.3,1.2-0.6s0.5-0.8,0.5-1.2C3.7,13.5,3.2,13.6,2.9,14z M0.7,12.3c0.4,0.4,0.9,0.5,1.3,0.5c0-0.5-0.2-1-0.5-1.3
		C1.1,11.2,0.6,11,0.1,11C0.1,11.5,0.3,12,0.7,12.3z M2.9,11.5c-0.4,0.4-0.5,0.9-0.5,1.4c0.5,0,1-0.2,1.3-0.5C4,12,4.2,11.5,4.2,11
		C3.7,10.9,3.2,11.2,2.9,11.5z M0.7,9.8c0.4,0.4,0.8,0.5,1.3,0.5c0-0.5-0.2-1-0.5-1.3C1.1,8.7,0.6,8.5,0.1,8.5
		C0.1,9,0.3,9.5,0.7,9.8z M2.9,9c-0.4,0.4-0.5,0.9-0.5,1.4c0.5,0,1-0.2,1.3-0.5C4,9.5,4.2,9,4.2,8.5C3.7,8.5,3.2,8.7,2.9,9z
		 M0.7,7.4C1.1,7.8,1.5,7.9,2,7.9c0-0.5-0.2-1-0.5-1.3C1.2,6.2,0.6,6.1,0.2,6.1C0.1,6.5,0.3,7,0.7,7.4z M2.9,6.5
		C2.5,6.9,2.3,7.4,2.4,7.9c0.5,0,1-0.2,1.3-0.5C4,7,4.2,6.5,4.2,6C3.7,6,3.2,6.2,2.9,6.5z M0.7,4.9C1.1,5.3,1.5,5.4,2,5.4
		c0-0.5-0.2-1-0.5-1.3C1.1,3.7,0.6,3.6,0.1,3.6C0.1,4,0.3,4.5,0.7,4.9z M2.9,4.1C2.5,4.4,2.3,5,2.4,5.4c0.5,0,1-0.2,1.3-0.5
		C4,4.5,4.2,4,4.2,3.5C3.7,3.5,3.2,3.7,2.9,4.1z M0.7,2.4C1.1,2.8,1.5,2.9,2,2.9c0-0.5-0.2-1-0.5-1.3C1.1,1.2,0.6,1.1,0.1,1.1
		C0.1,1.6,0.3,2,0.7,2.4z M2.9,1.6C2.5,1.9,2.3,2.5,2.4,2.9c0.5,0,1-0.2,1.3-0.5C4,2,4.2,1.5,4.2,1C3.7,1,3.2,1.2,2.9,1.6z
		 M16.9,26.2c-0.3,0.4-0.5,0.9-0.4,1.4c0.5,0,1-0.2,1.2-0.6c0.3-0.4,0.4-0.9,0.3-1.4C17.6,25.6,17.2,25.9,16.9,26.2z M17.9,28.3
		c-0.4-0.3-1-0.4-1.5-0.4c0,0.5,0.2,1,0.6,1.3c0.4,0.4,1.1,0.4,1.6,0.3C18.7,29.1,18.4,28.6,17.9,28.3z M19.1,25.9
		c-0.2,0.4-0.3,1-0.2,1.4c0.5-0.1,0.9-0.4,1.1-0.8c0.2-0.5,0.2-1,0-1.4C19.7,25.1,19.3,25.4,19.1,25.9z M20.5,27.8
		c-0.5-0.2-1-0.3-1.5-0.1c0.1,0.5,0.4,0.9,0.9,1.1c0.5,0.3,1.1,0.3,1.6,0C21.3,28.3,20.9,28,20.5,27.8z M21.2,25.1
		c-0.1,0.5-0.1,1,0.1,1.4c0.4-0.2,0.8-0.5,1-1c0.1-0.5,0-1-0.2-1.4C21.6,24.3,21.3,24.7,21.2,25.1z M22.9,26.7
		c-0.5-0.2-1.1-0.1-1.5,0.1c0.2,0.4,0.5,0.8,1,1c0.5,0.1,1.2,0.1,1.6-0.2C23.8,27.1,23.4,26.9,22.9,26.7z M23.1,24
		c-0.1,0.5,0,1,0.3,1.4c0.4-0.2,0.6-0.6,0.7-1.2s-0.1-1-0.5-1.3C23.4,23.2,23.2,23.5,23.1,24z M25.1,25.3c-0.5-0.1-1,0.1-1.5,0.4
		c0.2,0.4,0.6,0.7,1.2,0.8c0.5,0.1,1.1-0.1,1.5-0.5C26.1,25.6,25.6,25.3,25.1,25.3z M24.8,22.6c0,0.5,0.2,1,0.5,1.3
		c0.4-0.3,0.5-0.8,0.5-1.3c0-0.5-0.3-1-0.6-1.2C24.9,21.7,24.8,22.1,24.8,22.6z M27,23.5c-0.5,0-1,0.3-1.4,0.6
		c0.3,0.3,0.7,0.5,1.3,0.5c0.5,0,1.1-0.3,1.4-0.8C28,23.6,27.5,23.5,27,23.5z M26.3,20.9c0.1,0.5,0.4,0.9,0.8,1.2
		c0.3-0.4,0.4-0.9,0.3-1.4c-0.1-0.5-0.5-0.9-0.9-1.1C26.2,20,26.2,20.5,26.3,20.9z M28.6,21.4c-0.5,0.1-1,0.4-1.2,0.9
		c0.4,0.3,0.9,0.4,1.4,0.3c0.5-0.1,1-0.5,1.3-1C29.5,21.4,29,21.3,28.6,21.4z M27.4,19c0.2,0.5,0.5,0.9,1,1.1
		c0.2-0.4,0.3-0.9,0.1-1.4c-0.2-0.5-0.6-0.8-1.1-0.9C27.2,18.1,27.2,18.5,27.4,19z M29.7,19.1c-0.5,0.2-0.9,0.6-1.1,1.1
		c0.4,0.2,0.9,0.3,1.4,0.1c0.5-0.2,0.9-0.6,1.1-1.2C30.7,18.8,30.2,18.9,29.7,19.1z M28.1,16.9c0.3,0.4,0.7,0.7,1.2,0.9
		c0.1-0.4,0.1-1-0.2-1.4c-0.3-0.4-0.7-0.6-1.2-0.7C27.8,16.1,27.9,16.5,28.1,16.9z M30.5,16.6c-0.5,0.3-0.7,0.7-0.9,1.2
		c0.4,0.2,1,0.1,1.4-0.2c0.4-0.3,0.8-0.8,0.9-1.4C31.4,16.2,30.9,16.3,30.5,16.6z M28.6,14.7c0.3,0.4,0.8,0.6,1.3,0.6
		c0.1-0.5-0.1-1-0.4-1.3c-0.3-0.4-0.8-0.5-1.3-0.5C28,14,28.2,14.4,28.6,14.7z M30.8,14c-0.4,0.4-0.5,0.9-0.6,1.4
		c0.4,0.1,1,0,1.4-0.4c0.4-0.4,0.6-1,0.5-1.5C31.7,13.5,31.2,13.6,30.8,14z M28.6,12.3c0.4,0.4,0.9,0.5,1.3,0.5c0-0.5-0.2-1-0.5-1.3
		c-0.4-0.4-0.9-0.5-1.3-0.5C28.1,11.5,28.2,12,28.6,12.3z M30.8,11.5c-0.4,0.4-0.5,0.9-0.5,1.4c0.5,0,1-0.2,1.3-0.5
		c0.4-0.4,0.5-0.9,0.5-1.4C31.7,10.9,31.2,11.2,30.8,11.5z M28.6,9.8c0.4,0.4,0.9,0.5,1.3,0.5c0-0.5-0.2-1-0.5-1.3
		c-0.4-0.4-0.9-0.5-1.3-0.5C28.1,9,28.2,9.5,28.6,9.8z M30.8,9c-0.4,0.4-0.5,0.9-0.5,1.4c0.5,0,1-0.2,1.3-0.5
		C32,9.5,32.1,9,32.1,8.5C31.7,8.5,31.2,8.7,30.8,9z M28.6,7.4C29,7.8,29.5,7.9,30,7.9c0-0.5-0.2-1-0.5-1.3
		c-0.3-0.4-0.9-0.5-1.3-0.5C28.1,6.5,28.2,7,28.6,7.4z M30.8,6.5c-0.4,0.4-0.5,0.9-0.5,1.4c0.5,0,1-0.2,1.3-0.5
		C32,7,32.1,6.5,32.1,6C31.7,6,31.2,6.2,30.8,6.5z M28.6,4.9C29,5.3,29.5,5.4,30,5.4c0-0.5-0.2-1-0.5-1.3c-0.4-0.4-0.9-0.5-1.3-0.5
		C28.1,4,28.2,4.5,28.6,4.9z M30.8,4.1c-0.4,0.4-0.5,0.9-0.5,1.4c0.5,0,1-0.2,1.3-0.5C32,4.5,32.1,4,32.1,3.5
		C31.7,3.5,31.2,3.7,30.8,4.1z M28.6,2.4C29,2.8,29.5,2.9,30,2.9c0-0.5-0.2-1-0.5-1.3c-0.4-0.4-0.9-0.5-1.3-0.5
		C28.1,1.6,28.2,2,28.6,2.4z M30.8,1.6c-0.4,0.4-0.5,0.9-0.5,1.4c0.5,0,1-0.2,1.3-0.5C32,2,32.1,1.5,32.1,1
		C31.7,1,31.2,1.2,30.8,1.6z"/>
	<g>
		<path class="st3" d="M22.3,15c0,3.3-2.7,6-6,6s-6-2.7-6-6s2.7-6,6-6S22.3,11.7,22.3,15z"/>
		<path class="st2" d="M10.5,13.5l-0.1,0.1c-0.1,0.4-0.2,0.9-0.2,1.4c0,0.7,0.1,1.5,0.4,2.1c0-0.6,0.1-1.2,0.3-1.6
			C10.6,15,10.5,13.5,10.5,13.5z M21,16.8c-0.5,0.6-1.8,1.4-1.8,1.4s-0.1,1.4-0.4,1.9c0.3,0,0.6-0.1,1.1-0.2
			c0.8-0.5,1.4-1.4,1.8-2.2C21.4,17.3,21.1,16.9,21,16.8z M12.3,19.6c1,0.9,2.3,1.4,3.7,1.4c0.1-0.1,0.1-0.1,0.1-0.2
			c-1-0.3-1.4-0.6-2.1-1.1C13.3,19.9,12.6,19.7,12.3,19.6z M20.9,14c0,0,0.6-1.2,0.5-1.5c-0.1-0.3-1.5-1.9-1.5-1.9l-1.5,0.2l0.5,2.1
			C19,12.9,20.9,14,20.9,14z M14.4,13.5l-1.5,2.1l1.6,2.2l2.6-0.9l-0.2-2.7C16.8,14.2,14.4,13.5,14.4,13.5z M13.8,11.3
			c0.4-0.5,1.3-1.2,2-1.4c-0.2-0.3-0.5-0.7-0.5-0.9c-1,0.2-1.8,0.5-2.6,1.1L12,11.3C12.6,11.1,13.3,11.1,13.8,11.3z"/>
	</g>
	<path class="st3" d="M16.1,3.8l0.5,1L17.7,5l-0.9,0.8L17,6.8l-1-0.5l-1,0.5l0.2-1.1L14.5,5l1.1-0.1C15.6,4.8,16.1,3.8,16.1,3.8z
		 M12.7,5.2L13,5.9L13.7,6l-0.5,0.5l0.1,0.8l-0.6-0.4L12,7.2l0.1-0.8l-0.6-0.5l0.8-0.1C12.3,5.8,12.7,5.2,12.7,5.2z M19.5,5.2
		l0.3,0.7L20.6,6L20,6.5l0.1,0.8l-0.6-0.4l-0.6,0.4l0.1-0.8L18.4,6l0.8-0.1C19.1,5.9,19.5,5.2,19.5,5.2z M22.1,6.9l0.2,0.5l0.5,0.1
		l-0.4,0.4l0.1,0.5l-0.5-0.2l-0.4,0.2l0.1-0.5l-0.4-0.4l0.5-0.1L22.1,6.9z M9.9,6.9l0.2,0.5l0.5,0.1l-0.4,0.4l0.1,0.5L9.9,8.1
		L9.4,8.3l0.1-0.5L9.1,7.5l0.5-0.1L9.9,6.9z"/>
</g>
<g>
	<path class="st2" d="M51.7,6.8h5.4l-2,4.4h-5.4l-5.2,12.6h-5.2l5.4-12.6h-5.4l1.8-4.4h5.4l1.1-2.4H53C53,4.5,51.7,6.8,51.7,6.8z
		 M56.1,23.6c-2.8,0-3.8-1.5-2.6-4.4l5.4-12.6h16.8l-2,4.4H62.3l-0.8,1.8h11.8l-2.1,4.6H59.7l-0.3,1c-0.3,0.7,0,0.8,0.5,0.8h10.6
		l-2,4.4C68.5,23.6,56.1,23.6,56.1,23.6z M93.3,6.8l-8,18.9h-5.4l3.1-7.5h-5.4l-2.1,5.5h-5.4l5.2-12.6c1.3-2.8,3.3-4.4,6.4-4.4
		C81.7,6.8,93.3,6.8,93.3,6.8z M79.6,13.9H85l1.1-2.8h-3.4c-1.1,0-2.1,0.7-2.6,1.8C80.1,13,79.6,13.9,79.6,13.9z M98.5,23.6h-4.4
		l5.2-12.4h-1.8l-6.2,14.5h-4.4l8-18.9h8.8c5.4,0,6.9,2.6,4.6,7.8l-3.6,8.8h-4.4l3.6-8.8c1-2.3,1-3.4-0.3-3.4
		C103.8,11.2,98.5,23.6,98.5,23.6z M135.1,6.8l-2,4.6h-9.8c-1.1,0-2,0.7-2.4,1.8l-1.3,2.6c-1,2.4-0.3,3.4,2.1,3.4h7.8l-2,4.4h-7.8
		c-6,0-7.8-2.6-5.5-7.8l2-4.4c1.3-2.8,3.3-4.4,6.4-4.4C122.5,6.9,135.1,6.8,135.1,6.8z M141.8,23.7h-5.9c-4.1,0-5.5-1.5-4.4-4.2
		l3.4-8.2c1.3-2.8,3.8-4.4,8-4.4h5.9c3.8,0,5.2,1.5,3.8,4.4l-3.3,8c-0.7,1.5-1.5,2.4-2.6,3.1C145.4,23.2,143.8,23.6,141.8,23.7z
		 M146,11.3h-3.8c-1.1,0.2-2,0.7-2.4,1.6l-2.1,4.9c-0.5,1,0,1.6,1.1,1.6h3.4c1.1-0.2,2.1-0.8,2.6-1.8l2-4.6
		C147.3,12,147,11.3,146,11.3z M166.1,23.6h-12.4c-2.8,0-3.8-1.5-2.6-4.4l6.4-14.9h5.5l-5.7,13.1c-0.5,1.1-0.2,1.8,1,1.8h9.6
		C167.9,19.2,166.1,23.6,166.1,23.6z M172.3,23.6c-2.8,0-3.8-1.5-2.6-4.4l5.4-12.6h16.8l-2,4.4h-11.4l-0.8,1.8h11.8l-2.3,4.6h-11.4
		l-0.3,1c-0.3,0.7,0,0.8,0.5,0.8h10.6l-2,4.4H172.3L172.3,23.6z"/>
</g>
</svg>
