<svg xmlns="http://www.w3.org/2000/svg" viewBox="0 0 367 480" enable-background="new 0 0 367 480"><style type="text/css">.st0{fill:#48622E;} .st1{fill:#010101;} .st2{fill:#FFDE0F;} .st3{fill:#FEF8C6;} .st4{fill:#334222;} .st5{fill:#FDF7B8;} .st6{fill:#E0BD9D;} .st7{fill:#FFFBF7;}</style><path class="st0" d="M343.7 32.2c-15.8 11.2-26.2 27.7-35.5 45.3-5.1 12.8-10.7 25.2-23.1 30.5-6.8 2.9-14.4 4.6-21.3 8.1-.2 0-.1-.2 0-.2 6-5.4 13.4-8.7 21.3-11.9l.7-.3c8.3-4.9 14.7-13.8 18-23.1-1.9 2.8-3.1 6.4-5.8 8.7-12.5 10.7-31.5 14-45.8 23.7-6.3 4.3-10.5 9.5-16.5 13.4 5-29.5 29.4-41.5 47-58.5-2.5 1.6-4.8 3.2-7.6 4.8-6.7 3.8-12.3 11.8-20.8 11.9-6 .1-9.9-3-10.4-8.6-1.2-13.5 10.8-25.6 20.8-31-17.1 6-25.7 21.8-33.8 37.3 1.9-9.4 5.8-21 11.7-27.9 10-11.6 31-16.8 49.6-19.5 10.3-1.5 20.8-3.1 30.8-3.6-17 15.7-18.2 50.1-38.6 63.5 14.6-5.2 18.5-20.4 25.6-33.5 6.9-12.7 16.6-26.9 33.7-29.1zM320.6 176.3c1.8 10.1-4.1 16.2-11.5 20 5.4-5.1 9.5-12.1 11.5-20zM317.3 163.3c2.4 4-1.4 8.6-4.3 10.4-1.3 10.8-7.2 20.4-17.2 22.4 8.3-8.9 12.7-21.8 18.1-33.5 1.4 0 2.5.7 3.4.7zM312.2 155.7c.3 1.1.2 3.5 0 5.1-2.3.4-2.9 2.3-5.1 2.8-2.7 6.5-5.3 15.9-9.4 23.1-1.2 2.2-4.9 7.6-7.3 7.8-3.2.2-5.1-4.5-7.1-6.1 2.2-9.1 10.5-16.1 14.8-23.9 2-3.5 0-8.1 1-12.2-.1-.2-.2-.4-.3-.5l1.8-.3c.2.3.5.6.8.8 3.4 2.4 7 1.3 10.8 3.4z"/><path class="st1" d="M159 106.4c-1.6-2.6-1.2-7.3-3.6-9.1-.5 4 1.9 7.3 3.6 9.1zm-.5 23.4c7.5 6.6 15.6 12.6 26.7 15.5-2.2-2.8-3.1-7.2-5.6-9.9-3.5-3.8-10.7-4.1-14.3-8.1-3.2-3.5-3.2-10.3-5.3-14.7-2.1-4.4-7.3-7.1-7.6-13-5.7-5.7-10.3-13-13.5-20.6-12.9 3.5-21.4 11.3-31.5 17.6 34.6 16.1 53.8 47.8 88.9 63.5 6.2-3.2 11.3-7.5 16.8-11.4-4.1 1.5-12.2 5.6-18 4-14.3-4.2-27.8-13.3-36.6-22.9zm20.6 96.5c-4.3-2-8.5-4.2-13.9-5.1-.9 4.7-1.7 9.7-2.1 14.3 7.6 4.7 15.2 8.8 24.2 11.9-3.2-6.3-9.1-12.3-8.2-21.1zm-10.5-6.5c4 1.1 7.3 3 11 4.3 3.6-3.1 10.6-1.7 18.1-.8 8 1 16.6 2.1 16.8 8.7 2.8-.1 6.9-.1 10.1 0-.2-3.4-2.2-6.3-2.8-9.9 3.8-3.1 8.2-6.7 8.4-12.9 4.7-4 7.8-9.8 10.2-16.2-1.2-1-2.6-1.8-4.1-2.5-11.2 6.1-36.2 9.3-44-2.1 8.2.6 15.8 5.2 23.9 3.1 4.9-1.3 10-4.3 14.7-7.1 6.3-3.8 13.4-7.4 14.7-15.3-7.9-4.7-12.6-13.2-12.5-25.4-9.6 3.7-18.8 9.1-27.2 14.7-2.1 1.4-6.3 5.2-8.9 5.1-2.3-.1-5.9-2.9-8.1-4.1-13.6-7.6-24.9-15.5-36.4-24.6-5-3.9-10.7-11.3-19.3-10.7-10.7.7-20.2 4.2-25.4 9.9-11.6 12.8.3 29.9 14 32.3 4.9.9 7.3-3.6 11.4-.3 5.1 13.7 13.6 24.8 30.7 26.1 7.2.5 13.8-1.3 19.6-3.3 3.6 2.1 7.7 3.6 11.2 5.8-12.3.2-26.2 2.9-36.8 1.2 3.6 5.4 7.5 15.4 14.2 17.1 7.2 1.9 16.1.7 22.6 3.6-.9 0-1.1.7-1.8 1-8.1-1.1-16.1-1.5-24.2-1.7-.3 1.8.3 2.4-.1 4zm11.2-98.9c8.5-.5 15.3-1.8 21.4-4.7 1.5-.7 2.9-1.6 4.4-2.5-.2-5.7 8.3-9.1 2.1-13.4-2.9 1.8-8.1 2.2-11.7 1.3 1.2 2.2 1.6 3.7 3 6.6.6 1.2 3.3 5.1 2.6 6.6-.1.3-.4.5-.7.7-1.5.9-4.8 1.1-6.9 1.1-3.9.1-8.5.5-8.2-3.3 2.7.5 5.7-.4 8.1-1.2-.5-5-4.9-11-2.3-15.5 5.3-1.9 8.1-7.6 13-10.4-2.9-5.6-4.6-12.6-7.7-18-2.4 1-1.8-1.8-3.1-2.5-1.4-.7-6.5 2.8-8.4 3.6-3.4 1.5-6.3 2.6-9.1 3-1.3-3.4-1.3-7.5-.8-11.9-8.1 3.3-15.6 7.1-21.4 12.7 1.6 14.8 5.4 29.5 9.7 42.1.9 2.8 2.1 8 3.8 10.1 2 2.3 6.8 4.4 9.6 5.9 4.7 2.6 9 4.9 12.7 7.4 5.6.2 11-1.6 14.7-4.3-.2-.9-.4-1.8-1-2.3-5.8-.4-14.5 2.7-16.5-3.6 4.6-.7 10.3-1.8 13.9-4.4-4.2.8-7.3 3.2-12 3-4.2-.2-6.8-3.1-10.1-3.8-2.8-.6-5.5-.2-6.4-3 1.7-2.3 6.1-2.1 7.3.7zm21.3-2c-5.6 2.1-12.5 2.5-18 4.1 6.3 3 15.8-.1 18-4.1zm101.2-87.4c21.9-2.8 43.5-5 64.6-8.1-15.3 6.9-27.7 16.3-38.3 28-6.4 7.2-13.6 18.5-18.1 28.5-3.6 8-6.6 15.2-12.2 21.3-5.4 5.8-11.6 10.2-19.3 14.3 8.4 5.2 15.9 11.2 19.8 20.9 12.4.3 20.8 6 26.7 14.8 4 5.9 4.4 14.8 1.3 20.9.4 1.1.7 2.3.5 4-.6 4.4-3.1 12.8-5.8 17.8-2.5 4.7-10.4 10.1-17 9.4-1.2-.1-2.1-1.2-3.1-1.5-3.4-.8-7.8-.2-9.7-3.5-2.9-.2-4.6-1.7-6.6-2.8-1.3 5.6-12.1 10-16 4.3-2.8-4.1-2.6-11.2-6.6-14.5-5.2 13.6-11.2 26.9-18.1 38.6 3.4 1.2.8 7.3-.2 11.2-1.3 5.4-2.9 9.5-3.5 14.3-1.2.8-2.6 1.5-4.3 1.8-.6 13.4-9.3 21.6-10.2 34.1-.5 6.5.6 12.8.2 19-.8 11.6-1.9 23.1-6.3 34.3-2.4 6.1-8 10.1-11.7 15.2-2.7 3.7-5 9.9-9.4 12-5.8 2.8-14.1-1-20-1.8-2.3 10.9-5.4 21.9-12.9 28.4-3 2.6-11.6 1.8-16.5.2-4.9-1.7-4.5-4.3-4.6-9.9-.2-7.7-1.2-15.5.2-20.9.7-2.9 3.9-6.7 5.9-9.2 4.7-5.8 9.2-11.2 11.6-18.8 1.8-5.8 3.7-11.4 9.1-14 .1-2.2.5-4.6 1-6.8-10.6 13.5-26.7 26.3-35 40.4-5.1 7.3-8.6 18.1-9.7 28.5-.3 2.8.1 6.7-.8 9.2-.7 1.8-4.7 4.6-6.3 6.4-1.8 2.2-4.3 4.8-5.4 7.3-1 2.2-2.3 8.1-1.7 9.9.3.8 1.2.8 1.7 1.3 2.5 2.9 6 11.2 4.3 14.8-1.8 3.7-6 9.1-6.6 12.9-1.1 6.6 4.6 15.6 4.1 22.4 0 .3-.4 1.4-.5 1.6-4.2 8.6-25.4 17.1-35.8 8.3-1.6-1.4-5.3-4.9-5.1-7.6.1-2.3 4-7.1 5.3-10.1 3.2-7.3 6.1-13.9 9.6-20.8 1.5-3.1 4.4-7.5 4.8-10.1.5-3.1-1.3-9.5-2.3-13.2-1.1-4.1-2.7-7.7-4-11.4-2.8-8.1-4.5-17.8-5.4-26.4-.3-3.2-.8-8.6.3-11.2 1.7-3.8 4.9-8 7.8-12 4.5-6.4 8.2-12.3 15-15.5 2.3-8.4 8.3-15.8 10.6-23.9 1-3.5.7-8.1 1-11.5 2.2-23.8 15-40 29.8-53.3 4.4-4 9.3-6.4 12-12.4.3-6 1.5-13.1 3.1-19.6.5-.2 1.3-.2 2-.2-.4-5.6-4.8-8.3-7.1-12.5-2.4 4.4-4.8 8.8-7.1 13.4 1 2.8.9 5 .3 8.1 1 1.5 3.6 2.6 3.8 4.4.2 2.3-2.8 4.1-3.5 5.6-.5 1.2-.1 2.1-.5 3-.7 1.7-2.2 1.5-3.3 2.8-.3.3-.2 1.3-.5 1.8-2.4 3.6-9.3 9.7-14.5 6.8-5.4-3.1-10.1-9.2-15.8-12.2-1-2-1-5.2 0-7.1 2-3.9 5.9-10.4 7.9-14.2 1.3-2.4.3-4.8-.8-8.4-2.8-8.9-4.7-16.6-4.3-26.9 2.2-.6 3.7-1.8 5.4-2.8 0-2.4 0-4.7.7-6.9-10.5-3.2-19.1-8.4-24.6-16.7-3.3-6.6-3.5-16-1.3-23.1-24.4 1.2-50.1-2.6-66.6-11.7-1.7-2.3-2.8-6.9-2.6-11.4.2-5.7 3.1-11.5-.3-14.2-13.5-17.1-25.4-37.4-30.9-62.9 20.3 15.8 42.6 33.2 68 45.5 9.9 4.8 20 10.2 30.2 15 1.5.7 4 2.3 5.1 2.3 2.3 0 6.6-3.5 8.7-4.8 8.3-5.2 15.9-10.9 26.1-14-.2-3.5-5-8.8-4.3-12 .3-1.5 2.8-4.1 3.8-5.8 8.4-14 15.1-29.5 26.1-40.6 4.6-4.7 10.1-8.2 14.8-12.2-1.6 2.5-3.6 6.9-3.8 10.9 8.3-5.8 19.1-11.6 28.9-16-2.8 7.8-2.1 16.8-.2 26.2 4.5-2.6 7.3-8.4 11.4-12 .9 12.7 5.2 23.9 5.9 36.8 1.4-2.4 2.5-5.1 3.3-8.1 1.4 2.3 1.4 5.9 2.3 8.7 5.5-.7 10.8.1 16.2-1.8 2-.7 3.4-2.8 5.1-3.8 14.5-8.2 34.9-12.5 54.7-14.5zm20.8-.2c-10 .5-20.6 2.2-30.8 3.6-18.6 2.7-39.6 7.9-49.6 19.5-5.9 6.9-9.8 18.5-11.7 27.9 8-15.5 16.6-31.3 33.7-37.3-10 5.4-22 17.5-20.8 31 .5 5.6 4.4 8.6 10.4 8.6 8.5-.1 14-8.1 20.8-11.9 2.8-1.6 5.1-3.1 7.6-4.8-17.6 17-42 29-47 58.5 6-3.9 10.1-9.1 16.5-13.4 14.4-9.7 33.3-13 45.8-23.7 2.7-2.3 3.8-6 5.8-8.7-3.3 9.3-9.7 18.2-18 23.1l-.7.3c-7.9 3.2-15.2 6.5-21.3 11.9-.1 0-.2.1 0 .2 6.9-3.5 14.5-5.2 21.3-8.1 12.4-5.3 18-17.7 23.1-30.5 9.3-17.6 19.7-34.2 35.5-45.3-17.1 2.2-26.8 16.5-33.6 29.2-7.1 13.1-11 28.3-25.6 33.5 20.4-13.5 21.6-47.9 38.6-63.6zm-28.1 110.4c1.3.2 2.6.3 3.8.3 2 2.2 2.5 6.1 4.5 8.7 1.7.7 3.3 1.3 5.1 1.8 1.4-2.7 2.9-5.3 5.1-7.1-5.7-4.6-15.6-6.1-25.2-5.9-1.1 0-2.2.1-3.3.3-9 1.2-16.8 7-18.7 14.7.9-.7 1.8-1.5 2.8-2.3l1.4 1.3c-3.5 2.9-6.3 6.3-7.1 11.1-.7 4.3-2.7 10-2 14.5.3 2.1 2.1 2.6 3.1 4 3.2 4.1 5.1 9.3 7.3 14 3.9-.9 9.1-4.2 6.9-9.4-5-2.7-10.9-11.3-7.9-16.7 2.7-4.9 6.7-11 8.6-16.2-2 .1-2.2 2.8-3.6 2.8 1.6-2.5 4.2-5.3 7.3-6.9.5.4 1.5.3 1.6 1.2-1.2 6.9-10.9 15.2-11.5 22.9-.3 3.6 3.8 10.2 7.3 9.6 1.6-.3 4.7-5.6 5.6-7.6 1.4-3.1 2.9-6.1 4-9.4 1.6-5 1.7-9.1 3.1-13.7.6-1.8 4.5-3.5 5.8-2 .1.1.2.3.3.5-1 4.1 1 8.7-1 12.2-4.3 7.8-12.7 14.8-14.8 23.9 2 1.6 3.9 6.3 7.1 6.1 2.3-.2 6-5.6 7.3-7.8 4.1-7.2 6.7-16.6 9.4-23.1 2.2-.5 2.9-2.4 5.1-2.8.2-1.6.3-4 0-5.1-3.8-2.1-7.4-.9-10.7-3.5-.3-.2-.5-.5-.8-.8-1.5-2.3-1.5-6.7-3.8-7.7-.6-.3-1.3-.4-2-.5l-.1-1.4zm14.1 54.5c7.5-3.8 13.4-9.8 11.5-20-2 8-6.1 15-11.5 20zm3.9-22.5c2.9-1.8 6.7-6.4 4.3-10.4-.9 0-2-.6-3.3-.7-5.5 11.6-9.9 24.5-18.1 33.5 9.9-2 15.9-11.6 17.1-22.4zm-30.6-37.6c1.6-2.4.3-6.5-1.3-8.3-7.3-4.3-18.1-4.2-26.9-2.5-9.9 1.9-18 12.7-18.3 23.1-.4 13.5 10.4 18.1 23.1 19 1.1-3 1.3-6.3 2.6-9.2.5-1 1.7-1.5 2-2.5 1.2-3.9 1-6.4 3-9.2 1.6-2.2 3.9-4.7 6.8-6.1 2.3-1.2 7.4-2.1 9-4.3zm-53.3-70.5c2.2-4.6 5.2-8.3 8.6-11.7-3.3.6-7.5.4-10.6 1.3 1 2.8 1.3 7.4 2 10.4zm-13.2 16.2c4.3-7 8.5-16.6 7.9-25.9-4 7.3-8.5 15.2-7.9 25.9zm3.3 176.9c.6-.8 4.2-3.1 4.1-4-.1-1.2-1.7-.9-2-.8-6.4 2.1-12.3 7.9-17.3 12-4.3 3.6-8 8.2-11.2 13.2-6.2 9.6-13.5 21.1-16.5 32.5-2.9 10.8.5 23.9.2 34-.1 2.1-.8 5.8-.3 7.6 1.4 5.3 11.9 4.2 18.1 4.5 3.5-5.3 8.8-10 12.2-15.3 6.7-10.7 8.9-23.6 10.2-38.6 1.3-14.4-6.4-29.8.2-41.6.5-1 1.6-2.5 2.3-3.5zm-3.1-8.9c3-4.5 2.1-13.9 8.7-15.3-4-.2-6.2-.6-10.2-.3-3.6 5.8-7.6 11.2-12.5 15.7 4.4.3 9.3.4 14-.1zm-13.1-196.9c7.3-7 12.1-16.4 9.7-27.9-3.8 8.8-7.4 18.6-9.7 27.9zm6.3 179.6c.7-3.8-2-4.4-5.4-5.3-6.8-1.8-14.8-3.8-21.3-2-3.3 4.5 1.3 10.4 3.8 14.5 1.3 2.2 3.7 7.5 5.8 8.4 3.6 1.6 8.5-5.5 10.4-7.4 1.9-1.9 6.2-5.3 6.7-8.2zm-.3-205c.1 0 .2-.1 0-.2-6.3 5.4-15 8.4-19.8 15.3.6-4.2 3.2-9.9 4-14.5-6.7 11.8-14.9 24.9-14.7 41.6 9.2-3.8 13-12.1 18.3-20.3 4.8-7.5 9.4-13.7 12.2-21.9zm-1.5 66.8c-3.5.8-6.5 2.1-8.7 4.1 4 .3 7.6-.8 8.7-4.1zm-1.2 48.2c-6.1 1.4-14.7 1.3-19.5-1.2 1.5 8.9 17.5 11.3 19.5 1.2zm-13.5-120.2c3.7-3.9 4.2-11.3 5.4-16.3-10.6 4.5-20.9 10.3-28.5 17.3.6-3.4 1.1-5.8 2-9.2-16.3 12.9-25.7 33.4-34.8 52.4 3.9 9.3 7.2 20.2 14.5 26.6-.4-5.4.3-12.4-.2-20.6 1.2-1.2 2.8-1.8 3.8-3.1.2-9.2 7.2-19.5 12.5-26.9-4.4 6.5-6.5 16.2-9.6 24.6 3.3-1.9 5.8-3.8 6.9-7.6 3.6-11.7 13.1-19.3 20.3-28 3-3.7 4.2-9 7.9-12.4.4.6-.4 2.4-.2 3.2zm11.7 235.8c-11.3-3.5-22.5-7.9-32-12.7 2 8.1 4.3 19.6 9.7 25.9 1.1 1.3 3.3 1.9 4.9 2.1 5.8-5.2 11.6-10.3 17.4-15.3zm-17.1 23.2c-1.8.1-2.6-.8-3.5-1.6-.9 4.2-1.7 8.9-2.6 12.2 2-2.8 4.8-7 6.1-10.6zm-13.7-11.5c.1-4.5-1.1-8.3-2.3-13.9-1.3-6.1-3.1-14.2-8.1-16.2-2.7 2.7-4.3 6.6-7.3 9.1-13.6 11.6-27.5 23.4-32 43.5-.9 4.2-1.7 8.9-2.5 13.4-.7 4.1-.5 9-1.7 12.9-2.5 8.3-9.6 15.5-10.9 24.6 8.1 1.2 11.8 9 16 14.2 2-4.1 2.9-9.3 4.3-14 9.4-.7 16-8.4 20.9-14.7 4.2-5.4 7.1-11.4 10.7-17.6 6.9-11.6 12.6-26.9 12.9-41.3zm-43.9-155.8c-7.9-5.2-16.3-11.5-25.6-15.7-36-16.1-70.4-34.6-98.8-58.2 0 .2.1.4.3.3 4.8 14.2 10.3 31.7 21.4 42.4 7.1 6.8 17.3 10.5 27 14.3 9.9 3.9 21.3 4.9 30.7 10.4-18-.8-33.5-3.7-49-7.3-1.2 4.5-1.3 9.7.2 14.2 2.4 1 4.4 2.1 6.9 2.6 23.5 5.1 45.6-3.8 65-8.1-8.8-4.4-18.8-7.6-28.4-11.2 19.3 2.3 35.6 9.6 50.3 16.3zm-18.4 241.9c2.4-.3 3.9-1.5 5.4-2.6-2.3-2.9-4.3-6.7-8.6-6.3-4.3.4-5.8 4.7-9.6 5.4-.5-1.4 1.7-4.3 1.3-5.4-4.5 6.2-9.1 12.4-12.5 19.6-.6 25.5 9.3 43.6 12.4 66.3-1.1.4-2.1.9-3.1.8-6.8 10.8-10.6 23.8-16.2 35.6 7.6 7.7 20.8 2.4 23.3-5.9-3.2-1.5-7.5-1.5-10.9-2.3 3-4.5 8.9-6.2 13-9.6 1.2-6.7-.9-15.2.5-21.9 1.1-5.4.1-12.3.5-18.8.4-7.6.1-15.3.7-22.6.9-11.6 6.8-21.8 3.8-32.3z"/><path class="st0" d="M300.7 151.4l-1.8.3c-1.3-1.5-5.2.2-5.8 2-1.5 4.6-1.5 8.7-3.1 13.7-1.1 3.3-2.6 6.3-4 9.4-.9 2-4.1 7.3-5.6 7.6-3.4.6-7.5-6-7.3-9.6.6-7.7 10.3-16 11.5-22.9-.1-.8-1.2-.7-1.6-1.2-3.1 1.6-5.6 4.4-7.3 6.9 1.4 0 1.7-2.7 3.6-2.8-1.9 5.2-5.9 11.3-8.6 16.2-3 5.4 2.9 14 7.9 16.7 2.2 5.2-3 8.5-6.9 9.4-2.2-4.8-4.1-9.9-7.3-14-1-1.3-2.8-1.9-3.1-4-.7-4.5 1.2-10.2 2-14.5.8-4.7 3.6-8.2 7.1-11.1 4.5-3.7 10.1-6.5 14-10 3.6.4 7.3-.7 10.3-.4.7.1 1.4.2 2 .5 2.5 1.1 2.5 5.5 4 7.8z"/><path class="st1" d="M285.2 140.9c3.1-.4 6.5.4 9.9.8l-.2 1.4c-3.1-.4-6.7.8-10.3.4-3.8 3.5-9.5 6.3-14 10l-1.4-1.3c1.6-1.3 3.3-2.8 5.1-4.1 2.6-1.9 5.3-5.3 7.9-6.4 1-.4 2-.7 3-.8z"/><path class="st0" d="M288.3 139.5c9.6-.1 19.5 1.3 25.2 5.9-2.2 1.8-3.7 4.4-5.1 7.1-1.8-.5-3.5-1.2-5.1-1.8-2-2.6-2.5-6.6-4.5-8.7-1.3 0-2.5-.1-3.8-.3-3.4-.4-6.7-1.2-9.9-.8l-.2-1.1c1.2-.2 2.3-.3 3.4-.3z"/><path class="st2" d="M281 127.8c1.6 1.8 3 5.9 1.3 8.3-1.5 2.2-6.7 3.1-9.1 4.3-2.8 1.4-5.2 3.9-6.8 6.1-2 2.8-1.8 5.3-3 9.2-.3.9-1.5 1.5-2 2.5-1.4 3-1.5 6.3-2.6 9.2-12.7-.8-23.5-5.4-23.1-19 .3-10.4 8.4-21.2 18.3-23.1 8.9-1.7 19.8-1.8 27 2.5z"/><path class="st0" d="M266.4 154.5c1.9-7.8 9.7-13.5 18.7-14.7l.2 1.1c-1 .1-2 .4-3 .8-2.6 1.1-5.3 4.5-7.9 6.4-1.9 1.4-3.5 2.8-5.1 4.1-1.1.8-2 1.6-2.9 2.3z"/><path class="st2" d="M245.6 169.2c-1.3 8-8.4 11.6-14.7 15.3-4.6 2.8-9.8 5.8-14.7 7.1-8.1 2.1-15.7-2.6-23.9-3.1 7.9 11.5 32.8 8.3 44 2.1 1.5.7 2.9 1.5 4.1 2.5-2.4 6.4-5.5 12.1-10.2 16.2-.2 6.2-4.6 9.7-8.4 12.9.6 3.6 2.6 6.5 2.8 9.9-3.2-.1-7.2-.1-10.1 0-.2-6.7-8.8-7.8-16.8-8.7-7.5-.9-14.5-2.3-18.1.8-3.8-1.3-7-3.2-11-4.3.4-1.6-.2-2.3 0-4 8.2.2 16.1.5 24.2 1.7.7-.3.9-1 1.8-1-6.5-2.9-15.4-1.7-22.6-3.6-6.7-1.8-10.6-11.8-14.2-17.1 10.6 1.7 24.5-1 36.8-1.2-3.5-2.2-7.6-3.7-11.2-5.8-5.8 1.9-12.5 3.8-19.6 3.3-17.1-1.2-25.6-12.4-30.7-26.1-4.1-3.3-6.5 1.2-11.4.3-13.7-2.5-25.6-19.5-14-32.3 5.2-5.7 14.7-9.2 25.4-9.9 8.6-.6 14.3 6.9 19.3 10.7 11.6 9 22.8 16.9 36.4 24.6 2.2 1.2 5.8 4.1 8.1 4.1 2.6.1 6.8-3.7 8.9-5.1 8.4-5.6 17.6-10.9 27.2-14.7-.1 12.2 4.6 20.7 12.6 25.4z"/><path class="st0" d="M237.7 53.9c-3.4 3.4-6.4 7.1-8.6 11.7-.7-3-1-7.6-2-10.4 3.1-.8 7.3-.6 10.6-1.3z"/><path class="st3" d="M223.8 55.9c.6 9.3-3.6 18.9-7.9 25.9-.6-10.7 3.9-18.6 7.9-25.9z"/><path class="st2" d="M223.3 254.8c.1.8-3.5 3.1-4.1 4-.7.9-1.8 2.5-2.3 3.5-6.5 11.7 1.1 27.1-.2 41.6-1.3 15-3.5 27.9-10.2 38.6-3.4 5.4-8.8 10-12.2 15.3-6.3-.2-16.7.9-18.1-4.5-.5-1.7.3-5.4.3-7.6.4-10.1-3-23.1-.2-34 3-11.4 10.3-22.9 16.5-32.5 3.2-5 6.9-9.6 11.2-13.2 5-4.2 10.9-10 17.3-12 .3-.1 1.9-.5 2 .8z"/><path class="st4" d="M224.8 234.5c-6.6 1.4-5.7 10.9-8.7 15.3-4.7.4-9.6.4-14 0 4.9-4.5 9-9.8 12.5-15.7 4-.2 6.3.3 10.2.4z"/><path class="st3" d="M212.8 25.1c2.4 11.4-2.4 20.9-9.7 27.9 2.2-9.4 5.8-19.2 9.7-27.9z"/><path class="st2" d="M203.9 227.2c3.4.9 6.1 1.5 5.4 5.3-.5 2.9-4.8 6.3-6.8 8.2-1.9 1.9-6.8 9.1-10.4 7.4-2-.9-4.5-6.3-5.8-8.4-2.5-4.1-7.1-10-3.8-14.5 6.5-1.8 14.6.3 21.4 2z"/><path class="st3" d="M209 27.4c.2 0 .1.2 0 .2-2.8 8.1-7.3 14.4-12.2 21.9-5.3 8.2-9.1 16.5-18.3 20.3-.2-16.7 8-29.7 14.7-41.6-.7 4.6-3.4 10.3-4 14.5 4.8-6.9 13.5-9.9 19.8-15.3z"/><path class="st0" d="M213.1 148.7c-5.6 3.8-10.6 8.2-16.8 11.4-35.1-15.7-54.2-47.3-88.9-63.5 10.1-6.3 18.6-14.1 31.5-17.6 3.2 7.7 7.8 14.9 13.5 20.6.3 6 5.5 8.7 7.6 13 2.1 4.4 2.1 11.2 5.3 14.7 3.6 4 10.8 4.3 14.3 8.1 2.5 2.7 3.4 7.1 5.6 9.9-11.1-2.9-19.3-8.9-26.7-15.5 8.7 9.6 22.3 18.7 36.6 22.9 5.8 1.7 13.9-2.4 18-4z"/><path class="st5" d="M198.8 98.4c2.2-2.1 5.3-3.3 8.7-4.1-1.1 3.3-4.7 4.4-8.7 4.1z"/><path class="st6" d="M201.6 114.8c.6-1.5-2.1-5.4-2.6-6.6-1.4-2.9-1.8-4.4-3-6.6 3.6.9 8.8.5 11.7-1.3 6.1 4.2-2.4 7.7-2.1 13.4-1.4.9-2.9 1.8-4.4 2.5l-.3-.6c.3-.3.5-.5.7-.8zM186.9 141.3c4.8 2.5 13.4 2.6 19.5 1.2-2.1 10.1-18.1 7.7-19.5-1.2z"/><path class="st3" d="M198.3 5.9c-1.3 5.1-1.7 12.5-5.4 16.3-.2-.7.5-2.5.3-3.3-3.7 3.4-4.9 8.6-7.9 12.4-7.1 8.8-16.7 16.3-20.3 28-1.1 3.7-3.6 5.7-6.9 7.6 3-8.4 5.2-18 9.6-24.6-5.4 7.4-12.4 17.7-12.5 26.9-1 1.3-2.6 2-3.8 3.1.5 8.2-.2 15.3.2 20.6-7.4-6.3-10.6-17.3-14.5-26.6 9.1-19.1 18.5-39.6 34.8-52.4-.9 3.5-1.4 5.9-2 9.2 7.5-6.8 17.7-12.6 28.4-17.2z"/><path class="st7" d="M183.1 123c5.4-1.6 12.4-2 18-4.1-2.2 4-11.7 7.1-18 4.1z"/><path class="st0" d="M172.5 245.4c9.5 4.8 20.7 9.2 32 12.7-5.8 5-11.7 10.1-17.3 15.3-1.7-.3-3.8-.8-4.9-2.1-5.5-6.4-7.8-17.8-9.8-25.9z"/><path class="st6" d="M160.3 99.8c4.1-2.3 8.6-.1 12.5 1.2-2.5 0-4.2 1.5-6.6 1 .8 7.7 11.8 5.3 16.8 3 .9-3.9 2.7-8.5 2.3-11.9-1.6 1.8-2.8 5.1-5.1 5.6-6.5 1.5-16.5-7.8-19.9 1.1zm33.7 16.8c2.1 0 5.4-.2 6.9-1.1l.3.6c-6 3-12.8 4.3-21.4 4.7-1.2-2.8-5.6-3-7.6-.7.9 2.8 3.6 2.4 6.4 3 3.2.6 5.8 3.6 10.1 3.8 4.7.2 7.9-2.2 12-3-3.5 2.7-9.3 3.7-13.9 4.4 2 6.4 10.7 3.2 16.5 3.6.6.5.8 1.4 1 2.3-3.7 2.7-9 4.5-14.7 4.3-3.7-2.5-8-4.8-12.7-7.4-2.8-1.6-7.6-3.6-9.6-5.9-1.7-2-2.8-7.3-3.8-10.1-4.3-12.6-8.1-27.2-9.7-42.1 5.8-5.6 13.3-9.4 21.4-12.7-.5 4.3-.5 8.4.8 11.9 2.8-.4 5.7-1.5 9.1-3 1.9-.8 7-4.3 8.4-3.6 1.4.7.7 3.4 3.1 2.5 3.2 5.4 4.8 12.4 7.7 18-5 2.8-7.7 8.5-13 10.4-2.6 4.5 1.8 10.5 2.3 15.5-2.4.7-5.4 1.6-8.1 1.2 0 3.9 4.6 3.5 8.5 3.4z"/><path class="st4" d="M179.1 226.3c-1 8.8 5 14.8 8.2 21.1-9.1-3.1-16.6-7.1-24.2-11.9.4-4.6 1.3-9.7 2.1-14.3 5.4.9 9.7 3 13.9 5.1z"/><path class="st5" d="M169.9 104.2c3.2-.2 6.6-1.9 9.7-1-2.4 1.7-7.2 3.4-9.7 1z"/><path class="st2" d="M171.4 255.9c1.2 5.5 2.4 9.3 2.3 13.9-.3 14.4-6 29.7-12.7 41.2-3.6 6.2-6.5 12.3-10.7 17.6-4.9 6.3-11.6 14-20.9 14.7-1.4 4.7-2.3 9.9-4.3 14-4.2-5.2-7.9-13-16-14.2 1.3-9.1 8.4-16.3 10.9-24.6 1.2-3.9.9-8.8 1.7-12.9.8-4.5 1.5-9.1 2.5-13.4 4.5-20.2 18.4-31.9 32-43.5 3-2.5 4.5-6.3 7.3-9.1 4.8 2.2 6.6 10.2 7.9 16.3zm-15.7-4.1c-6.5 5-10.3 13.2-14.5 21.1-2.9 5.4-5.8 11.1-7.4 16.8-3.5 12.4-4.5 25.6-4.6 37.9 0 1.6-.2 4.9 1 5.4 3.3 1.7 6.3-3.4 8.4-4.3-2.1 0-2.5 1.6-4.5 1.8-1.2-5.4.5-11.7 1.2-17.6 2.5-21.9 10.1-44.9 20.4-61.1z"/><path class="st1" d="M183.1 104.9c-5 2.4-16 4.7-16.8-3 2.4.5 4.1-1 6.6-1-3.9-1.3-8.5-3.5-12.5-1.2 3.4-8.8 13.4.4 20-1.2 2.3-.6 3.6-3.8 5.1-5.6.3 3.5-1.5 8.1-2.4 12zm-13.2-.7c2.5 2.4 7.3.7 9.7-1-3.1-.9-6.5.8-9.7 1z"/><path class="st6" d="M155.4 97.3c2.4 1.8 2 6.5 3.6 9.1-1.7-1.8-4.1-5.1-3.6-9.1z"/><path class="st1" d="M141.2 272.9c4.2-7.9 8-16.1 14.5-21.1-10.4 16.2-18 39.2-20.4 61.2-.7 6-2.3 12.2-1.2 17.6 1.9-.2 2.4-1.8 4.5-1.8-2.2.9-5.1 6-8.4 4.3-1.2-.6-1-3.8-1-5.4.1-12.4 1.1-25.5 4.6-37.9 1.6-5.8 4.5-11.4 7.4-16.9z"/><path class="st0" d="M116.8 353.2c-1.6 1.1-3 2.4-5.4 2.6 3.1 10.5-2.8 20.7-3.8 32.3-.6 7.3-.2 15-.7 22.6-.4 6.5.6 13.4-.5 18.8-1.4 6.7.8 15.2-.5 21.9-4.2 3.4-10 5.1-13 9.6 3.4.8 7.7.8 10.9 2.3-2.4 8.3-15.7 13.7-23.3 5.9 5.6-11.8 9.3-24.9 16.2-35.6 1.1 0 2.1-.4 3.1-.8-3.1-22.7-13-40.8-12.4-66.3 3.5-7.3 8-13.4 12.5-19.6.3 1.2-1.9 4-1.3 5.4 3.7-.7 5.2-5 9.6-5.4 4.3-.3 6.3 3.5 8.6 6.3z"/><path class="st4" d="M5.5 40.1c28.4 23.6 62.8 42.1 98.8 58.2 9.2 4.1 17.6 10.4 25.6 15.7-14.7-6.7-31-13.9-50.1-16.2 9.5 3.6 19.5 6.8 28.4 11.2-19.4 4.3-41.5 13.2-65 8.1-2.5-.6-4.5-1.6-6.9-2.6-1.5-4.5-1.3-9.7-.2-14.2 15.5 3.5 31 6.4 49 7.3-9.4-5.5-20.7-6.4-30.7-10.4-9.8-3.9-19.9-7.6-27-14.3-11.3-10.8-16.8-28.3-21.6-42.5-.3.1-.3-.1-.3-.3z"/></svg>