<?xml version="1.0" encoding="utf-8"?>
<!-- Generator: Adobe Illustrator 19.1.0, SVG Export Plug-In . SVG Version: 6.00 Build 0)  -->
<!DOCTYPE svg PUBLIC "-//W3C//DTD SVG 1.1//EN" "http://www.w3.org/Graphics/SVG/1.1/DTD/svg11.dtd">
<svg version="1.1" id="Layer_1" xmlns="http://www.w3.org/2000/svg" xmlns:xlink="http://www.w3.org/1999/xlink" x="0px" y="0px"
	 viewBox="-85 157 474 235" style="enable-background:new -85 157 474 235;" xml:space="preserve">
<style type="text/css">
	.st0{fill:#010101;}
	.st1{fill:#FEF8C6;}
</style>
<path class="st0" d="M179.1,213.9c5.6,0,11-1.3,16-3.8c0,0.1,0.1,0.2,0.2,0.3c0.3,0.4,0.7,0.6,1.2,0.6h0.6v0.1
	c-0.1,0.4,0,0.9,0.3,1.3s0.7,0.6,1.2,0.6h14c0.7,0,1.3-0.5,1.5-1.2l1.4-7.2h5.5l1,5.5c0.1,0.7,0.8,1.2,1.5,1.2h0.4l0.1,0.8
	c0.1,0.7,0.8,1.2,1.5,1.2h0.2l14.8-2.2c0.2,0,0.5-0.1,0.7-0.3c0.2,0.1,0.4,0.1,0.5,0.1h0.5v0.5c0,0.8,0.7,1.5,1.5,1.5H258
	c0.8,0,1.5-0.7,1.5-1.5v-49.7c0-0.8-0.7-1.5-1.5-1.5h-0.5v-0.5c0-0.8-0.7-1.5-1.5-1.5h-14.3c-0.8,0-1.5,0.7-1.5,1.5v43.5l-10.5-42
	c-0.2-0.7-0.8-1.1-1.5-1.1h-0.3l-0.2-0.9c-0.2-0.7-0.8-1.1-1.5-1.1h-17.5c-0.7,0-1.3,0.5-1.5,1.1l-10.3,41.6v-18.4
	c0-0.8-0.7-1.5-1.5-1.5h-0.5v-0.5c0-0.8-0.7-1.5-1.5-1.5h-17.7c1.4-5.2,4.3-5.2,5.5-5.2c3.1,0,6.2,1.1,9.8,3.3
	c0.4,0.3,1,0.3,1.4,0.1c0.5-0.2,0.8-0.6,0.9-1.1l1.9-12.1c0.1-0.7-0.2-1.3-0.8-1.6l-1.2-0.5c0.1-0.6-0.3-1.2-0.8-1.5
	c-4.2-2-8.7-3-13.8-3c-15.2,0-23.3,9.5-23.3,27.4c0,12,3.3,18.9,7.9,22.8C167.7,212.5,173.7,213.9,179.1,213.9L179.1,213.9z
	 M175.1,187.8l0.5,3c0.1,0.7,0.7,1.3,1.5,1.3h0.4l0.1,0.7c0.1,0.7,0.7,1.3,1.5,1.3h0.4v3.6c-0.3,0.1-0.7,0.1-1.2,0.1s-1-0.1-1.5-0.3
	C175.8,195.9,175.2,192.9,175.1,187.8L175.1,187.8z M302,311.7h-0.5v-0.5c0-0.8-0.7-1.5-1.5-1.5h-27.2V297H296
	c0.4,0,0.9-0.2,1.1-0.5c0.3-0.3,0.4-0.8,0.3-1.2l-4.2-24.5c-0.1-0.7-0.7-1.2-1.5-1.2h-0.4l-0.1-0.8c-0.1-0.7-0.7-1.2-1.5-1.2h-17
	v-9.3h28c0.8,0,1.5-0.7,1.5-1.5V233c0-0.8-0.7-1.5-1.5-1.5h-0.5V231c0-0.8-0.7-1.5-1.5-1.5H240c-0.8,0-1.5,0.7-1.5,1.5v103.8
	c0,0.8,0.7,1.5,1.5,1.5h0.5v0.5c0,0.8,0.7,1.5,1.5,1.5h60c0.8,0,1.5-0.7,1.5-1.5v-23.6C303.5,312.3,302.8,311.7,302,311.7L302,311.7
	z M339.8,196.4c0-5-2.2-9.4-6.4-13.2c-1.9-2.1-4.4-4.1-7.4-5.9c-1.7-1-3-1.8-3.9-2.4v-0.2c0-0.4,0.7-0.9,1.6-0.9c2.9,0,6,1,9.4,2.9
	c0.4,0.2,0.9,0.3,1.4,0c0.4-0.2,0.8-0.6,0.8-1.1l1.1-6.9v2.9c0,0.8,0.7,1.5,1.5,1.5h0.5v0.5c0,0.8,0.7,1.5,1.5,1.5h6.5v34.2
	c0,0.8,0.7,1.5,1.5,1.5h0.5v0.5c0,0.8,0.7,1.5,1.5,1.5h14.3c0.8,0,1.5-0.7,1.5-1.5v-36h9.2c0.4,0,0.9-0.2,1.1-0.5s0.4-0.8,0.3-1.2
	l-1.9-12.1c-0.1-0.7-0.7-1.3-1.5-1.3h-0.4l-0.1-0.7c-0.1-0.7-0.7-1.3-1.5-1.3h-33.1c-0.8,0-1.5,0.7-1.5,1.5v2.7l-0.1-0.1
	c-0.4-0.2-0.7-0.3-1.1-0.4c0.1-0.7-0.3-1.3-0.9-1.6c-4.4-1.9-8.6-2.7-13.9-2.7c-10.6,0-17.5,6.6-17.5,16.7c0,4.6,2.1,8.8,6.1,12.3
	c1.8,2.1,4.2,3.9,7.2,5.7c1.9,1.1,3.2,2,4.2,2.6c0.1,0.3,0.2,0.6,0.2,0.9s0,1.3-2.4,1.3c-3,0-6.6-1.1-12-3.7c-0.4-0.2-0.9-0.2-1.3,0
	c-0.4,0.2-0.7,0.6-0.8,1.1l-1.8,11.8c-0.1,0.7,0.2,1.3,0.9,1.6c0.4,0.2,0.8,0.3,1.1,0.5c-0.1,0.6,0.3,1.3,0.9,1.5
	c5.1,2.3,10.8,3.5,16.8,3.5C332.9,213.5,339.8,207,339.8,196.4L339.8,196.4z M388.4,333.1l-18.1-38.3c9.1-6.9,13.6-16.1,13.6-28
	c0-11.1-3.4-19.7-10-25.7c-6.9-7.6-18.1-11.7-33-11.7H311c-0.8,0-1.5,0.7-1.5,1.5v103.8c0,0.8,0.7,1.5,1.5,1.5h0.5v0.5
	c0,0.8,0.7,1.5,1.5,1.5h28.6c0.8,0,1.5-0.7,1.5-1.5v-26l11.1,25.6c0.2,0.6,0.8,0.9,1.4,0.9h0.1l0.5,1.1c0.2,0.6,0.8,0.9,1.4,0.9h0.2
	l29.5-4.1c0.5-0.1,0.9-0.4,1.1-0.8C388.6,333.9,388.6,333.6,388.4,333.1L388.4,333.1z M342.6,256.9c2.7,0.1,4.9,0.7,6.5,1.8
	c1.4,2,2,4.8,2,8.5c0,7.8-2.5,11.6-8.5,12.6V256.9z M-17.7,308.7c-0.1-0.5-0.4-0.9-0.8-1.1c-0.3-0.2-0.7-0.2-1-0.1l-0.1-0.8
	c-0.1-0.5-0.4-0.9-0.8-1.1s-1-0.2-1.4,0c-6.3,3.4-10,4.8-13.4,4.8c-2.9,0-6-0.5-8.6-2.6c-3-3.8-5.2-10.7-5.2-22.9
	c0-12.6,2.3-27.5,13.2-27.5c5.3,0,8.7,1.6,14.4,5.2c0.4,0.3,1,0.3,1.4,0.1c0.5-0.2,0.8-0.6,0.9-1.1l3.9-24.7
	c0.1-0.6-0.2-1.3-0.8-1.6l-1.2-0.6c0-0.6-0.3-1.2-0.8-1.4c-7.5-3.7-14.7-5.3-24.2-5.3c-26.9,0-42.3,20.1-42.3,55
	c0,20.8,5,36,14.8,45c7.2,7.8,17.3,11.8,30.2,11.8c9.6,0,16.9-2.3,24.8-5.8c0.6-0.3,1-0.9,0.9-1.6L-17.7,308.7L-17.7,308.7z
	 M230.8,307.6c-0.3-0.2-0.7-0.2-1-0.1l-0.1-0.8c-0.1-0.5-0.4-0.9-0.8-1.1s-1-0.2-1.4,0c-6.3,3.4-10,4.8-13.4,4.8
	c-2.9,0-6-0.5-8.6-2.6c-3-3.8-5.2-10.7-5.2-22.9c0-12.6,2.3-27.5,13.2-27.5c5.3,0,8.7,1.6,14.4,5.2c0.4,0.3,1,0.3,1.4,0.1
	c0.5-0.2,0.8-0.6,0.9-1.1l3.9-24.7c0.1-0.6-0.2-1.3-0.8-1.6l-1.2-0.6c0-0.6-0.3-1.2-0.8-1.4c-7.4-3.7-14.6-5.3-24.1-5.3
	c-26.9,0-42.3,20.1-42.3,55c0,20.8,5,36,14.8,45c7.2,7.8,17.3,11.8,30.2,11.8c9.6,0,16.9-2.3,24.8-5.8c0.6-0.3,1-0.9,0.9-1.6
	l-3.9-23.6C231.5,308.2,231.2,307.8,230.8,307.6L230.8,307.6z M52.8,232.5c-0.2-0.7-0.8-1.1-1.5-1.1H51l-0.2-0.9
	c-0.2-0.7-0.8-1.1-1.5-1.1H13c-0.7,0-1.3,0.5-1.5,1.1l-25.7,103.9c-0.1,0.4,0,0.9,0.3,1.3c0.3,0.4,0.7,0.6,1.2,0.6h0.6v0.1
	c-0.1,0.4,0,0.9,0.3,1.3s0.7,0.6,1.2,0.6h29.2c0.7,0,1.3-0.5,1.5-1.2l3.1-16.2h15.9l2.7,15c0.1,0.7,0.8,1.2,1.5,1.2h0.4l0.1,0.8
	c0.1,0.7,0.8,1.2,1.5,1.2h0.2l30.8-4.5c0.4-0.1,0.8-0.3,1-0.6c0.2-0.3,0.3-0.8,0.2-1.2L52.8,232.5L52.8,232.5z M33.9,293.4h-5.6
	l2.8-15.2C31.1,278.2,33.9,293.4,33.9,293.4z M157.9,231.5h-0.5V231c0-0.8-0.7-1.5-1.5-1.5h-27.2c-0.8,0-1.5,0.7-1.5,1.5v35.4
	l-14.2-34c-0.2-0.6-0.8-0.9-1.4-0.9h-0.2l-0.5-1.1c-0.2-0.6-0.8-0.9-1.4-0.9H80.3c-0.8,0-1.5,0.7-1.5,1.5v103.8
	c0,0.8,0.7,1.5,1.5,1.5h0.5v0.5c0,0.8,0.7,1.5,1.5,1.5h27.2c0.8,0,1.5-0.7,1.5-1.5v-40.2l17.7,38.8c0.2,0.5,0.8,0.9,1.4,0.9h0.1
	l0.5,1.1c0.2,0.5,0.8,0.9,1.4,0.9h25.7c0.8,0,1.5-0.7,1.5-1.5V233C159.4,232.2,158.7,231.5,157.9,231.5L157.9,231.5z M13.1,211h0.5
	v0.5c0,0.8,0.7,1.5,1.5,1.5h14.3c0.8,0,1.5-0.7,1.5-1.5v-38.3h0.8v0.5c0,0.8,0.7,1.5,1.5,1.5h6.5v34.2c0,0.8,0.7,1.5,1.5,1.5h0.5
	v0.5c0,0.8,0.7,1.5,1.5,1.5h14.3c0.8,0,1.5-0.7,1.5-1.5v-36.1h9.3v34.2c0,0.8,0.7,1.5,1.5,1.5h0.5v0.5c0,0.8,0.7,1.5,1.5,1.5h28.7
	c0.8,0,1.5-0.7,1.5-1.5v-11.4c0-0.8-0.7-1.5-1.5-1.5H100v-0.5c0-0.8-0.7-1.5-1.5-1.5H87.3v-3.5h10.3c0.4,0,0.9-0.2,1.1-0.5
	c0.3-0.3,0.4-0.8,0.3-1.2l-2-11.8c-0.1-0.7-0.7-1.2-1.5-1.2h-0.4l-0.1-0.8c-0.1-0.7-0.7-1.2-1.5-1.2h-6.3v-1.9h12.6
	c0.8,0,1.5-0.7,1.5-1.5v-11.3c0-0.8-0.7-1.5-1.5-1.5h-0.5v-0.5c0-0.8-0.7-1.5-1.5-1.5H69.6c-0.8,0-1.5,0.7-1.5,1.5v4.9l-0.5-3.1
	c-0.1-0.7-0.7-1.3-1.5-1.3h-0.4l-0.1-0.7c-0.1-0.7-0.7-1.3-1.5-1.3H31c-0.8,0-1.5,0.7-1.5,1.5v0.5h-0.8v-0.5c0-0.8-0.7-1.5-1.5-1.5
	H13.1c-0.8,0-1.5,0.7-1.5,1.5v49.8C11.6,210.3,12.2,211,13.1,211L13.1,211z M262.4,211h0.5v0.5c0,0.8,0.7,1.5,1.5,1.5h13.1
	c0.8,0,1.5-0.7,1.5-1.5V197l6,13.1c0.2,0.5,0.8,0.9,1.4,0.9h0.1l0.5,1.1c0.2,0.5,0.8,0.9,1.4,0.9h12.3c0.8,0,1.5-0.7,1.5-1.5v-49.8
	c0-0.8-0.7-1.5-1.5-1.5h-0.5v-0.5c0-0.8-0.7-1.5-1.5-1.5h-13.1c-0.8,0-1.5,0.7-1.5,1.5v11.7l-4.3-10.2c-0.2-0.6-0.8-0.9-1.4-0.9
	h-0.2l-0.5-1.1c-0.2-0.6-0.8-0.9-1.4-0.9h-14c-0.8,0-1.5,0.7-1.5,1.5v49.8C260.9,210.3,261.6,211,262.4,211z M114.3,211h0.6v0.1
	c-0.1,0.4,0,0.9,0.3,1.3s0.7,0.6,1.2,0.6h14c0.7,0,1.3-0.5,1.5-1.2l1.4-7.2h5.5l1,5.5c0.1,0.7,0.8,1.2,1.5,1.2h0.4l0.1,0.8
	c0.1,0.7,0.8,1.2,1.5,1.2h0.2l14.8-2.2c0.4-0.1,0.8-0.3,1-0.6c0.2-0.3,0.3-0.8,0.2-1.2l-12-48.1c-0.2-0.7-0.8-1.1-1.5-1.1h-0.3
	l-0.2-0.9c-0.2-0.7-0.8-1.1-1.5-1.1h-17.5c-0.7,0-1.3,0.5-1.5,1.1l-12.3,49.9c-0.1,0.4,0,0.9,0.3,1.3
	C113.4,210.7,113.8,211,114.3,211z M-68.6,207.3c3.4,4.1,8.8,6.4,16,6.4c12.8,0,19.9-6.5,19.9-18.3v-33.7c0-0.8-0.7-1.5-1.5-1.5
	h-0.5v-0.5c0-0.8-0.7-1.5-1.5-1.5h-14.3c-0.8,0-1.5,0.7-1.5,1.5v34.5c0,1.6-0.4,3.5-2.5,3.5h-0.4c-0.1-0.4-0.2-0.9-0.2-1.4v-34.6
	c0-0.8-0.7-1.5-1.5-1.5h-0.5v-0.5c0-0.8-0.7-1.5-1.5-1.5H-73c-0.8,0-1.5,0.7-1.5,1.5v33.7C-74.5,199.4-72.4,204.2-68.6,207.3z
	 M-29.8,211h0.5v0.5c0,0.8,0.7,1.5,1.5,1.5h13.1c0.8,0,1.5-0.7,1.5-1.5V197l6,13.1c0.2,0.5,0.8,0.9,1.4,0.9h0.1l0.5,1.1
	c0.2,0.5,0.8,0.9,1.4,0.9H8.5c0.8,0,1.5-0.7,1.5-1.5v-49.8c0-0.8-0.7-1.5-1.5-1.5H8v-0.5c0-0.8-0.7-1.5-1.5-1.5H-6.7
	c-0.8,0-1.5,0.7-1.5,1.5v11.7l-4.3-10.3c-0.2-0.6-0.8-0.9-1.4-0.9H-14l-0.5-1.1c-0.2-0.6-0.8-0.9-1.4-0.9h-14
	c-0.8,0-1.5,0.7-1.5,1.5v49.8C-31.3,210.3-30.7,211-29.8,211z"/>
<path class="st1" d="M-54.6,210.2c11.8,0,18.4-5.7,18.4-16.8v-33.7h-14.3v34.5c0,3.2-1.6,5-4,5s-4.1-1.8-4.1-5v-34.5H-73v33.7
	C-73,203.8-66.4,210.2-54.6,210.2z M6.4,209.5v-49.8H-6.7v21.9l-9.1-21.9h-14v49.8h13.1v-23.8L-6,209.5H6.4z M27.4,159.7H13.1v49.8
	h14.3V159.7z M41.2,209.5h14.3v-37.7h10.7l-1.9-12.1H31.2v12.1h10V209.5z M98.5,198.1H83.8v-8.5h11.8l-2-11.8h-9.8V171h14.1v-11.3
	H69.7v49.8h28.7L98.5,198.1L98.5,198.1z M129.8,201.1h9.6l1.6,8.7l14.8-2.2l-11.7-48h-17.5l-12.3,49.9h14L129.8,201.1L129.8,201.1z
	 M134.8,175.2l2.7,15.1h-5.6L134.8,175.2L134.8,175.2z M193.6,206.1v-25.7h-18.2l1.7,10.2h3.9v8.2c-0.8,0.4-1.6,0.6-2.7,0.6
	c-4.6,0-6.6-4.3-6.6-14.8c0-9.7,2.6-14.4,7.8-14.4c3.5,0,7,1.3,10.6,3.5l1.9-12.1c-3.5-1.7-7.7-2.8-13.1-2.8
	c-14.9,0-21.8,9.7-21.8,25.9c0,16.9,6.8,25.8,20.1,25.8C183.5,210.4,189,208.7,193.6,206.1L193.6,206.1z M208.8,159.6l-12.3,49.9h14
	l1.6-8.4h9.6l1.6,8.7l14.8-2.2l-11.8-48H208.8L208.8,159.6z M214.2,190.3l2.8-15.1l2.7,15.1H214.2z M255.8,159.7h-14.3v49.8h14.3
	C255.8,209.5,255.8,159.7,255.8,159.7z M275.5,185.7l10.8,23.7h12.3v-49.7h-13.1v21.9l-9.2-21.9h-14v49.8h13.1v-23.8H275.5z
	 M318.1,198.7c-3.5,0-7.5-1.4-12.6-3.8l-1.8,11.8c4.9,2.2,10.3,3.4,16.2,3.4c9.7,0,16.5-5.4,16.5-15.6c0-7.9-6-12.8-11.1-15.7
	c-5.3-3.1-6.6-4.3-6.6-5.9c0-1.4,1.4-2.4,3.1-2.4c2.7,0,6.1,0.8,10.2,3.1l1.8-11.8c-4-1.7-7.9-2.6-13.3-2.6c-9.6,0-16,5.8-16,15.2
	c0,7.2,5.6,11.8,10.5,14.7c5.6,3.2,7.1,4.6,7.1,6.9C322,197.6,320.8,198.7,318.1,198.7L318.1,198.7z M347.9,209.5h14.3v-37.7h10.7
	l-1.9-12.1h-33.1v12.1h10V209.5z M-35.3,311.9c-11.6,0-17.3-8.4-17.3-29c0-20.5,5.9-29,14.7-29c5.7,0,9.5,1.8,15.2,5.4l3.9-24.7
	c-6.3-3.2-13.2-5.1-23.5-5.1c-25.8,0-40.7,19.4-40.7,53.5c0,34.9,14.1,53.2,41.5,53.2c9.3,0,16.4-2.3,24.2-5.7l-3.9-23.5
	C-27.2,310.3-31.4,311.9-35.3,311.9z M13,230.9l-25.7,103.9h29.2l3.3-17.4h20l3.3,18.2l30.8-4.5L49.4,230.9
	C49.4,230.9,13,230.9,13,230.9z M24.1,294.9l5.9-31.4l5.7,31.4H24.1z M128.7,276.7L109.6,231H80.4v103.8h27.2v-49.5l22.6,49.5h25.7
	V231h-27.2V276.7z M214,311.9c-11.6,0-17.3-8.4-17.3-29c0-20.5,5.9-29,14.7-29c5.7,0,9.5,1.8,15.2,5.4l3.9-24.7
	c-6.3-3.2-13.2-5.1-23.5-5.1c-25.9,0-40.8,19.4-40.8,53.5c0,34.9,14.1,53.2,41.5,53.2c9.3,0,16.4-2.3,24.2-5.7l-3.9-23.6
	C222.1,310.3,217.9,311.9,214,311.9L214,311.9z M269.3,293.4H294l-4.2-24.5h-20.5v-14.3h29.5V231h-58.7v103.8H300v-23.6h-30.7
	L269.3,293.4L269.3,293.4z M366.4,292.4c8.4-6,14-14.4,14-27.5c0-23.5-15.9-33.8-39.6-33.8H311v103.8h28.6v-33.1h1.2l14.7,34.1
	l29.5-4.1L366.4,292.4L366.4,292.4z M339.4,281.5h-0.3v-28.1h0.3c8,0,13.2,3.3,13.2,13.8C352.7,278.4,347.4,281.5,339.4,281.5z"/>
<g>
	<path d="M-74.1,379.9l10.6-0.7l-1.6,8.9c-0.2,0.3-0.5,0.9-0.6,1.3c-0.2,1,0.6,1.8,1.7,1.8c0.9,0,2.2-0.6,2.3-1.4
		c0.1-0.5,0-1-0.1-1.3l3.4-19.2c0.3-0.4,0.4-0.8,0.5-1.2c0.1-0.7-0.9-1.5-1.7-1.5c-0.9,0-2.1,0.6-2.2,1.6c-0.1,0.4-0.1,1,0.1,1.4
		l-1.1,6.3l-10.6,0.8l1.3-7.3c0.3-0.3,0.4-0.8,0.5-1.3c0.2-0.9-0.7-1.6-1.3-1.6c-1.3,0-2.5,0.7-2.6,1.7c-0.1,0.3,0,0.7,0.1,1.1
		L-77,377c-0.5,0.2-0.8,1-1,1.9c-0.1,0.4,0.1,0.9,0.4,1.2l-1.4,8.3c-0.3,0.2-0.6,0.9-0.6,1.3c-0.2,0.9,0.3,1.6,2,1.6
		c0.9,0,1.9-0.7,2-1.6c0.1-0.4,0-0.9,0-1.3L-74.1,379.9z"/>
	<path d="M-51.8,380.4l7.2-1c0.2,0.2,0.5,0.3,0.8,0.3c1.3,0,2.2-0.6,2.4-1.9c0.2-1-0.4-2-1.6-2c-0.5,0-1,0.3-1.4,0.5l-6.9,0.9
		l1.1-6.3l8.6-0.8c0.3,0.2,0.7,0.3,1.1,0.3c1.2,0,2.2-0.9,2.4-2.2c0.2-0.9-0.3-1.7-1.7-1.7c-0.4,0-1,0.3-1.4,0.6l-8.6,0.8
		c0.2-0.8-0.4-1.4-1.6-1.4c-1.1,0-2.1,0.6-2.2,1.4c0,0.2,0,0.5,0.1,0.6c-0.3,0.3-0.6,0.8-0.8,1.5c-0.1,0.6,0,1.2,0.5,1.5l-1.1,6
		c-0.3,0.3-0.8,1.1-1,1.8c-0.1,0.7,0,1.3,0.3,1.7l-1.3,7.2c-0.3,0.4-0.6,1.1-0.8,1.7c-0.2,1.3,0.5,2,1.5,2c1,0,1.7-0.3,2.1-0.7
		l10.1-0.8c1.8,0,2.9-0.3,3.2-1.9c0.2-0.8-0.5-1.8-1.7-1.8c-0.4,0-0.9,0.2-1.2,0.6l-9.8,0.7L-51.8,380.4z"/>
	<path d="M-30.1,369.7c0.2-0.3,0.5-0.7,0.5-1.1c0.3-1.6-0.6-2-1.5-2c-1,0-2.2,0.5-2.5,2.1c-0.1,0.4,0,0.8,0.1,1l-3.3,18.9
		c-0.3,0.2-0.6,0.7-0.7,1.3c-0.2,1.2,0.5,1.8,1.7,1.8c0.5,0,1.1-0.2,1.5-0.3l7.6-1c0.3,0.1,0.7,0.2,1,0.2c0.7,0,1.6-0.7,1.8-2.2
		c0.2-1.2-0.6-1.7-1.3-1.7c-0.3,0-1,0.3-1.3,0.5l-6.8,0.9L-30.1,369.7z"/>
	<path d="M-20.3,388.4c-0.4,0.4-0.5,0.7-0.6,1.3c-0.2,0.8,0.3,1.6,1.5,1.6c2,0,2.5-0.3,2.7-1.7c0-0.4-0.1-0.7-0.2-1l1.4-7.8
		c8.1-1.3,14.3-6,15-10.2c0.4-2.5-1-4-4.2-4c-4,0-6.6,1.4-8.7,2.5l0-0.5c0.5-1.2,0-1.9-1.4-1.9c-0.7,0-1.9,0.7-2.1,1.6
		c0,0.4,0,0.8,0.1,1l-0.3,1.4c-0.6,0.3-1.2,1-1.4,2c-0.2,1,0.2,1.6,0.7,1.6L-20.3,388.4z M-14.1,372.5c3-1.8,5.4-2.6,7.6-2.6
		c1.7,0,2.4,0.8,2.2,1.6c-0.4,2.2-4.4,5.2-10.8,6.2L-14.1,372.5z"/>
	<path d="M17.5,370.1l5-0.9c0.2,0.2,0.5,0.3,1,0.3c1,0,1.7-0.8,1.9-1.8c0.2-1.1-0.3-1.8-1.3-1.8c-0.4,0-0.7,0.1-1.1,0.3l-5.5,1
		c-0.5-0.4-2-0.2-2.6,0.5l-4.8,1c-0.2-0.2-0.4-0.3-1-0.3c-0.8,0-1.6,0.8-1.8,1.9c-0.2,1,0.3,1.7,1.3,1.7c0.4,0,0.8-0.2,1.1-0.4
		l4.3-0.9l-3.1,17.6c-0.2,0.3-0.4,0.8-0.5,1.3c-0.2,1.1,0.3,1.6,1.3,1.6c1.7,0,2.5-0.8,2.7-1.8c0.1-0.4-0.1-0.8-0.2-0.9L17.5,370.1z
		"/>
	<path d="M28.9,380.4l7.2-1c0.2,0.2,0.5,0.3,0.8,0.3c1.3,0,2.2-0.6,2.4-1.9c0.2-1-0.4-2-1.6-2c-0.5,0-1,0.3-1.4,0.5l-6.9,0.9
		l1.1-6.3l8.6-0.8c0.3,0.2,0.7,0.3,1.1,0.3c1.2,0,2.2-0.9,2.4-2.2c0.2-0.9-0.3-1.7-1.7-1.7c-0.4,0-1,0.3-1.4,0.6l-8.6,0.8
		c0.2-0.8-0.4-1.4-1.6-1.4c-1.1,0-2.1,0.6-2.2,1.4c0,0.2,0,0.5,0.1,0.6c-0.3,0.3-0.6,0.8-0.8,1.5c-0.1,0.6,0,1.2,0.5,1.5l-1.1,6
		c-0.3,0.3-0.8,1.1-0.9,1.8c-0.1,0.7,0,1.3,0.3,1.7l-1.3,7.2c-0.3,0.4-0.6,1.1-0.8,1.7c-0.2,1.3,0.5,2,1.5,2c1,0,1.7-0.3,2.1-0.7
		l10.1-0.8c1.8,0,2.9-0.3,3.2-1.9c0.2-0.8-0.5-1.8-1.7-1.8c-0.4,0-0.9,0.2-1.2,0.6l-9.8,0.7L28.9,380.4z"/>
	<path d="M57.9,381.9c1.1,4.7,1.3,6,1.2,6.5c-0.1,0.4-0.3,0.8-0.5,1.4c-0.2,0.8,0.5,1.4,1.6,1.4c1.3,0,2.2-0.8,2.5-2.2
		c0.2-1.3-0.7-5.2-2.3-10.9c-0.5-2.1-2.5-8.3-2.3-9.4c0.1-0.6,0.4-0.8,0.5-1.4c0.1-0.6-0.4-1.4-1.6-1.4c-1.3,0-2.3,1.2-2.5,2.6
		c-0.3,0.8-0.8,1.7-1.7,3.2l-8.5,13c-1.7,2.8-2.7,4.2-2.8,5c-0.2,0.9,0.2,1.7,1.5,1.7c1.6,0,2.2-0.8,2.4-1.6
		c0.1-0.5,0.2-1.1,0.3-1.7c0.2-0.6,0.7-1.4,3.3-5.5L57.9,381.9z M51,379.5l4.6-7.5l1.6,7L51,379.5z"/>
	<path d="M66.3,388.3c-0.3,0.2-0.5,0.8-0.5,1.2c-0.2,1,0.3,1.7,1.6,1.7c1.4,0,2.1-0.8,2.2-1.7c0.2-0.6,0-1.1-0.2-1.3
		c0.8-4.3,1.6-8.7,2.2-12.9h0.1c1.5,4.7,3.8,10.9,3.3,13.8c-0.2,1.2,0.2,2.1,1.7,2.1c1,0,1.8-0.4,2-1.3c0.6-2.7,6.5-10.4,9.3-14.3
		H88c-0.9,4.4-1.7,8.9-2.4,13.1c-0.3,0.3-0.5,0.7-0.6,1.2c-0.2,0.9,0.3,1.5,1.6,1.5c1.1,0,2.2-0.6,2.4-1.8c0.1-0.4,0.1-0.8-0.1-1.1
		l3.3-18.9c0.2-0.3,0.4-0.8,0.4-1.1c0.2-1.1-0.4-1.9-2-1.9c-1.1,0-1.8,0.5-2,1.3c-0.1,0.5-0.1,1.2-0.2,1.6
		c-0.9,3.6-8.1,10-10.6,15.6h-0.1c-0.2-5.7-4.8-13.5-4.4-16.9c0.2-0.9-0.3-1.5-1.4-1.5c-1.2,0-2,0.5-2.2,1.9L66.3,388.3z"/>
	<path d="M114.5,366.1c-6.6,0-12.4,9.4-13.4,15.1c-1.3,7.1,1.3,10.5,5.6,10.5c3.7,0,7.6-2.6,9.5-4.4c1-1.1,1.3-1.7,1.4-2.4
		c0.1-0.6-0.3-1.6-1.5-1.6c-1.5,0-2,1.2-2.2,2.2c-1.3,1.5-3.9,3-6.1,3s-4.1-2.2-3.2-7.1c0.8-4.8,5.3-12.2,9.7-12.2
		c1.6,0,2.7,0.6,2.7,1.3c0,1,0.4,1.5,1.4,1.5c1.1,0,2-0.7,2.2-2C120.8,368.2,118.4,366.1,114.5,366.1z"/>
	<path d="M135.2,365.7c-6.2,0-13.1,8.7-14.5,16.4c-0.7,4.2,0.1,10,5.8,10c6.6,0,13-6.2,14.5-14.6
		C142.5,368.9,139.3,365.7,135.2,365.7z M134.3,368.7c2.9,0,4.2,3,3.1,8.9c-1.1,6.6-5.9,11.4-9.8,11.4c-3.3,0-4-3.9-3.3-7.4
		C125.4,375.7,130.6,368.7,134.3,368.7z"/>
	<path d="M149.8,369.7c0.2-0.3,0.5-0.7,0.5-1.1c0.3-1.6-0.6-2-1.5-2c-1,0-2.2,0.5-2.5,2.1c-0.1,0.4,0,0.8,0.1,1l-3.3,18.9
		c-0.3,0.2-0.6,0.7-0.7,1.3c-0.2,1.2,0.5,1.8,1.7,1.8c0.5,0,1.1-0.2,1.5-0.3l7.6-1c0.3,0.1,0.7,0.2,1,0.2c0.7,0,1.6-0.7,1.8-2.2
		c0.2-1.2-0.6-1.7-1.3-1.7c-0.3,0-1,0.3-1.3,0.5l-6.8,0.9L149.8,369.7z"/>
	<path d="M164.3,380.4l7.2-1c0.2,0.2,0.5,0.3,0.8,0.3c1.3,0,2.2-0.6,2.4-1.9c0.2-1-0.4-2-1.6-2c-0.5,0-1,0.3-1.4,0.5l-6.9,0.9
		l1.1-6.3l8.6-0.8c0.3,0.2,0.7,0.3,1.1,0.3c1.2,0,2.2-0.9,2.4-2.2c0.2-0.9-0.3-1.7-1.7-1.7c-0.4,0-1,0.3-1.4,0.6l-8.6,0.8
		c0.2-0.8-0.4-1.4-1.6-1.4c-1.1,0-2.1,0.6-2.2,1.4c0,0.2,0,0.5,0.1,0.6c-0.3,0.3-0.6,0.8-0.8,1.5c-0.1,0.6,0,1.2,0.5,1.5l-1.1,6
		c-0.3,0.3-0.8,1.1-0.9,1.8c-0.1,0.7,0,1.3,0.3,1.7l-1.3,7.2c-0.3,0.4-0.6,1.1-0.8,1.7c-0.2,1.3,0.5,2,1.5,2c1,0,1.7-0.3,2.1-0.7
		l10.1-0.8c1.8,0,2.9-0.3,3.2-1.9c0.2-0.8-0.5-1.8-1.7-1.8c-0.4,0-0.9,0.2-1.2,0.6l-9.8,0.7L164.3,380.4z"/>
	<path d="M189.9,391.4c1.4,0,2.4-0.7,2.5-1.6c0.3-1.7,2.1-5.2,3.8-8.4c1.1-2.2,2.3-4.3,3.2-6.3c0.1,1.8,0.5,4.1,1.1,6.3
		c0.5,3.1,1.1,6.3,0.9,7.7c-0.2,1.9-0.2,2.7,1.4,2.7c1.3,0,1.8-0.8,2.5-3c1.1-3.8,3.5-8.1,5.2-11.5c1.4-2.9,2.7-5.4,3.6-8.1
		c0.2-0.5,0.3-1,0.3-1.4c0.2-0.8-0.5-1.6-1.6-1.6c-1.5,0-2.1,1-2.2,1.8c-0.1,0.5,0,0.8,0.1,1c-0.5,1.9-1.6,4.9-3,7.4
		c-1.1,2.2-2.8,5.4-3.9,8.6c0-1.9-0.5-4.1-0.9-6.6c-0.8-3.4-1.3-6.7-0.9-8.7c0.3-1.8,0-2.6-1.4-2.5c-1.1,0-1.8,0.7-2.1,2.1
		c-0.3,1.6-1.4,4.8-3.1,8c-1.5,2.7-3,5.6-3.9,7.8c0.2-2.5,0-5.4-0.2-7.7c-0.2-2.4-0.3-4.9,0-7.3c0.1-0.6,0.4-1.1,0.5-1.6
		c0.2-1.1-0.4-1.8-1.4-1.8c-1,0-2,0.6-2.3,2.2c-0.6,3.1-0.2,6.5,0.1,9.7c0.3,3.2,0.6,7.3,0.2,9.8
		C188.4,390.6,188.8,391.4,189.9,391.4z"/>
	<path d="M221.1,370.1c0.5-0.4,0.8-1,0.9-1.5c0.2-1-0.2-2.1-1.6-2.1c-1.3,0-2.6,0.9-2.9,2.2c0,0.4,0,0.8,0.3,1.1l-3.2,18
		c-0.3,0.4-0.7,0.9-0.7,1.4c-0.2,1.2,0.5,2,1.8,2c1.3,0,2.4-1,2.5-1.9c0.1-0.5-0.1-1-0.3-1.3L221.1,370.1z"/>
	<path d="M223.1,388.4c-0.2,0.2-0.5,0.7-0.6,1c-0.2,1.4,0.7,1.8,1.9,1.8s1.8-0.6,2-1.7c0.1-0.5,0-0.9-0.2-1.1
		c0.8-4.7,1.6-9.4,2.4-14h0.1c0.4,1.9,1.9,4.7,3.6,7.2c1.3,1.9,3.2,5.6,3.7,7.6c0.3,1.1,0.5,2.1,1.6,2.1c1.4,0,2-0.3,2.2-1.3
		c0.1-0.5-0.1-0.8-0.2-1l3.5-20.1c0.2-0.3,0.4-0.6,0.5-1.2c0.2-0.9-0.9-1.4-1.9-1.4c-0.9,0-1.7,0.5-2,1.7c-0.1,0.4,0.1,0.8,0.2,1
		c-0.9,5.1-1.7,10-2.5,14.9h0c-0.3-1.2-1.5-3.3-2.9-5.2c-1.5-2.2-3-4.9-3.6-6.8c-0.5-1.4-0.8-2.9-0.6-3.7c0.2-0.9-0.2-1.4-1.6-1.4
		c-1.3,0-2.1,0.9-2.3,1.9c0,0.4,0,0.8,0.1,1.1L223.1,388.4z"/>
	<path d="M262.9,370.1l5-0.9c0.2,0.2,0.5,0.3,1,0.3c0.9,0,1.7-0.8,1.9-1.8c0.2-1.1-0.3-1.8-1.3-1.8c-0.4,0-0.7,0.1-1.1,0.3l-5.5,1
		c-0.5-0.4-2-0.2-2.6,0.5l-4.8,1c-0.2-0.2-0.4-0.3-1-0.3c-0.8,0-1.6,0.8-1.8,1.9c-0.2,1,0.3,1.7,1.3,1.7c0.4,0,0.8-0.2,1.1-0.4
		l4.3-0.9l-3.1,17.6c-0.2,0.3-0.4,0.8-0.5,1.3c-0.2,1.1,0.3,1.6,1.3,1.6c1.7,0,2.5-0.8,2.7-1.8c0.1-0.4-0.1-0.8-0.2-0.9L262.9,370.1
		z"/>
	<path d="M274.4,379.9l10.6-0.7l-1.6,8.9c-0.2,0.3-0.5,0.9-0.6,1.3c-0.2,1,0.6,1.8,1.7,1.8c1,0,2.2-0.6,2.3-1.4c0.1-0.5,0-1-0.1-1.3
		l3.4-19.2c0.3-0.4,0.4-0.8,0.5-1.2c0.1-0.7-0.9-1.5-1.7-1.5c-0.9,0-2.1,0.6-2.2,1.6c-0.1,0.4-0.1,1,0.1,1.4l-1.1,6.3l-10.6,0.8
		l1.3-7.3c0.3-0.3,0.4-0.8,0.5-1.3c0.2-0.9-0.7-1.6-1.3-1.6c-1.3,0-2.5,0.7-2.6,1.7c-0.1,0.3,0,0.7,0.1,1.1l-1.4,7.7
		c-0.5,0.2-0.8,1-1,1.9c-0.1,0.4,0.1,0.9,0.4,1.2l-1.4,8.3c-0.3,0.2-0.6,0.9-0.6,1.3c-0.2,0.9,0.3,1.6,2,1.6c0.9,0,1.9-0.7,2-1.6
		c0.1-0.4,0-0.9,0-1.3L274.4,379.9z"/>
	<path d="M296.7,380.4l7.2-1c0.2,0.2,0.5,0.3,0.8,0.3c1.3,0,2.2-0.6,2.4-1.9c0.2-1-0.4-2-1.6-2c-0.5,0-1,0.3-1.4,0.5l-6.9,0.9
		l1.1-6.3l8.6-0.8c0.3,0.2,0.7,0.3,1.1,0.3c1.2,0,2.2-0.9,2.4-2.2c0.2-0.9-0.3-1.7-1.7-1.7c-0.4,0-1,0.3-1.4,0.6l-8.6,0.8
		c0.2-0.8-0.4-1.4-1.6-1.4c-1.1,0-2.1,0.6-2.2,1.4c0,0.2,0,0.5,0.1,0.6c-0.3,0.3-0.6,0.8-0.8,1.5c-0.1,0.6,0,1.2,0.5,1.5l-1.1,6
		c-0.3,0.3-0.8,1.1-1,1.8c-0.1,0.7,0,1.3,0.3,1.7l-1.3,7.2c-0.3,0.4-0.6,1.1-0.8,1.7c-0.2,1.3,0.5,2,1.5,2c1,0,1.7-0.3,2.1-0.7
		l10.1-0.8c1.8,0,2.9-0.3,3.2-1.9c0.2-0.8-0.5-1.8-1.7-1.8c-0.4,0-0.9,0.2-1.2,0.6l-9.8,0.7L296.7,380.4z"/>
	<path d="M318.3,388.4c-0.3,0.3-0.6,0.8-0.7,1.6c-0.2,1.1,0.4,1.6,1.8,1.6c3.3,0,9.1-1.8,13.3-5.5c3.3-2.9,5.5-6.9,6.2-11.2
		c0.8-4.2-1.8-8.6-6.2-8.6c-2.9,0-5.1,0.6-7.5,1.8c0.3-0.8,0.1-1.7-1.2-1.7c-1.5,0-2.3,1-2.4,1.6c-0.1,0.6,0,1,0,1.3L318.3,388.4z
		 M324.7,371.3c2.4-1.3,4.7-2,6.8-2c3,0,4.4,3.1,4,5.9c-0.6,3.5-2.2,6.2-4.6,8.7c-2.8,2.7-6.3,3.9-9.1,4.2L324.7,371.3z"/>
	<path d="M354.4,381.9c1.1,4.7,1.3,6,1.2,6.5c-0.1,0.4-0.3,0.8-0.5,1.4c-0.2,0.8,0.5,1.4,1.6,1.4c1.3,0,2.2-0.8,2.5-2.2
		c0.2-1.3-0.7-5.2-2.3-10.9c-0.5-2.1-2.5-8.3-2.3-9.4c0.1-0.6,0.4-0.8,0.5-1.4c0.1-0.6-0.4-1.4-1.6-1.4c-1.3,0-2.3,1.2-2.5,2.6
		c-0.3,0.8-0.8,1.7-1.7,3.2l-8.5,13c-1.7,2.8-2.7,4.2-2.8,5c-0.2,0.9,0.2,1.7,1.5,1.7c1.6,0,2.2-0.8,2.4-1.6
		c0.1-0.5,0.2-1.1,0.3-1.7c0.2-0.6,0.7-1.4,3.3-5.5L354.4,381.9z M347.5,379.5l4.6-7.5l1.6,7L347.5,379.5z"/>
	<path d="M366.9,387.9c-0.3,0.3-0.6,1-0.7,1.4c-0.3,1.6,0.3,1.9,1.5,1.9c1.6,0,2.5-0.9,2.7-1.9c0.1-0.5-0.1-0.8-0.2-1l1.6-9.2
		c1.9-2.8,5.2-4.9,7.8-7.5c0.5-0.5,1.3-1.1,1.8-1.8c0.6-0.7,1.3-1.4,1.4-2.1c0.2-1-0.4-1.7-1.4-1.7c-1.2,0-1.7,0.8-2.1,1.6
		c-0.3,0.5-0.7,0.9-1,1.3c-2.4,2.7-5.4,4.6-7.5,7.1h-0.1c-1.1-2.7-4.3-5.7-5.2-8.3c0.2-0.9-0.4-1.7-1.3-1.7c-1,0-2.3,0.8-2.5,1.9
		c-0.2,0.8,0.2,1.5,0.8,1.7c1.6,3.6,4.8,5.7,6,9.4L366.9,387.9z"/>
</g>
</svg>
